<svg xmlns="http://www.w3.org/2000/svg" viewBox="0 0 64 64"><title>25-dog pushchair</title><g id="_25-dog_pushchair" data-name="25-dog pushchair"><path d="M9,7a7.82,7.82,0,0,1-1.98,4.98C5,10.27,5,7,5,7H8a5.025,5.025,0,0,0,.98-.09Z" style="fill:#9a6948"/><path d="M24,7.19c.06,3.74,1.83,5.76,4,6.49V21H14.49C12,18.66,12,13,12,13H10a4.4,4.4,0,0,1-2.98-1.02A7.82,7.82,0,0,0,9,7l-.02-.09C12.97,6.2,13.34,1.13,17.82,1A6.192,6.192,0,0,1,24,7.19Z" style="fill:#f2cfa9"/><polygon points="32 1 32 21 28 21 28 13.68 28 1 32 1" style="fill:#8cb8f5"/><path d="M47.99,14.78l-7.92,6.3L40,21H32V1h2A13.987,13.987,0,0,1,47.99,14.78Z" style="fill:#a8e9ff"/><path d="M40,21l.07.08L10,45v4H6a4,4,0,0,1-4-4V21H40Z" style="fill:#fecfd5"/><path d="M52,21V45a4,4,0,0,1-4,4H44V43L33.04,32.04,47.09,21Z" style="fill:#fecfd5"/><polygon points="40 45 40 49 14 49 14 47 29.72 34.65 30 35 40 45" style="fill:#fecfd5"/><circle cx="12" cy="58" r="2" style="fill:#fecfd5"/><circle cx="42" cy="58" r="2" style="fill:#fecfd5"/><path d="M14,58a2,2,0,1,0-2,2A2.006,2.006,0,0,0,14,58Zm-2,5a5,5,0,0,1-2-9.59,5.083,5.083,0,0,1,4,0A5,5,0,0,1,12,63Z" style="fill:#555a66"/><path d="M44,58a2,2,0,1,0-2,2A2.006,2.006,0,0,0,44,58Zm-7,0a5.029,5.029,0,0,1,3-4.59,5.083,5.083,0,0,1,4,0A5,5,0,1,1,37,58Z" style="fill:#555a66"/><path d="M44,49v4.41a5.083,5.083,0,0,0-4,0V45L30,35l-.28-.35,3.32-2.61L44,43Z" style="fill:#7dd5f5"/><path d="M47.09,21,33.04,32.04l-3.32,2.61L14,47v6.41a5.083,5.083,0,0,0-4,0V45L40.07,21.08l7.92-6.3L54,10h8v4H56Z" style="fill:#8cb8f5"/><polygon points="33.04 32.04 35.04 34.04 49.09 23 51.636 21 47.09 21 33.04 32.04" style="fill:#eba5af"/><path d="M9,7a7.82,7.82,0,0,1-1.98,4.98C5,10.27,5,7,5,7H8a5.025,5.025,0,0,0,.98-.09Z" style="fill:#9a6948"/><path d="M24,7.19c.06,3.74,1.83,5.76,4,6.49V21H14.49C12,18.66,12,13,12,13H10a4.4,4.4,0,0,1-2.98-1.02A7.82,7.82,0,0,0,9,7l-.02-.09C12.97,6.2,13.34,1.13,17.82,1A6.192,6.192,0,0,1,24,7.19Z" style="fill:#f2cfa9"/><path d="M18.626,1.038A5.654,5.654,0,0,0,17.82,1c-4.48.13-4.85,5.2-8.84,5.91L9,7a8.253,8.253,0,0,1-.31,1.967,5.971,5.971,0,0,0,.679-.057c3.241-.525,4.309-3.433,6.636-4.966A2.987,2.987,0,0,1,18.626,1.038Z" style="fill:#ffe2c2"/><path d="M22,17H19.578A2.578,2.578,0,0,0,17,19.578V21h8V20A3,3,0,0,0,22,17Z" style="fill:#af7a58"/><path d="M25,20a3,3,0,0,0-3-3H19.578a2.575,2.575,0,0,0-2.507,2H21a2,2,0,0,1,2,2h2Z" style="fill:#db996e"/><path d="M22.85,14.571c-.047.031-.1.052-.15.08a2.44,2.44,0,0,1-.31.158c-.063.026-.131.041-.2.061a2.719,2.719,0,0,1-.313.084c-.073.013-.151.016-.226.023a2.725,2.725,0,0,1-.327.014c-.08,0-.158-.012-.236-.022a2.2,2.2,0,0,1-.23-.037c-.063-.014-.124-.034-.185-.053a2.535,2.535,0,0,1-.295-.108c-.014-.006-.027-.014-.041-.021a2.744,2.744,0,0,1-1.482-2.145c-.02-.165-.044-.328-.069-.485a23.14,23.14,0,0,0-1.3-4.969A7.344,7.344,0,0,1,17,4.5a3.488,3.488,0,0,1,2.418-3.312,5.936,5.936,0,0,0-.791-.15A2.989,2.989,0,0,0,16,4v.539a9.151,9.151,0,0,0,.087,1.205A3.483,3.483,0,0,0,16,6.5a7.338,7.338,0,0,0,.437,2.482,2.436,2.436,0,0,1-.766,1.081L12,13a19.547,19.547,0,0,0,.26,2.85c.295,1.76.924,3.915,2.242,5.15H17V19.9a4.947,4.947,0,0,1-3.359-2.49,1.982,1.982,0,0,1,.9-2.692L17.1,13.445a.621.621,0,0,1,.9.564A2,2,0,0,0,20,16h1a1.994,1.994,0,0,0,1.926-1.491A.931.931,0,0,1,22.85,14.571Z" style="fill:#e9b789"/><path d="M24,9l.13-.32A9.839,9.839,0,0,1,24,7.19a6.307,6.307,0,0,0-4.582-6A3.488,3.488,0,0,0,17,4.5a7.344,7.344,0,0,0,.493,2.651,23.14,23.14,0,0,1,1.3,4.969c.025.157.049.32.069.485a2.744,2.744,0,0,0,1.482,2.145c.014.007.027.015.041.021a2.535,2.535,0,0,0,.295.108c.061.019.122.039.185.053a2.2,2.2,0,0,0,.23.037c.078.01.156.019.236.022a2.725,2.725,0,0,0,.327-.014c.075-.007.153-.01.226-.023a2.719,2.719,0,0,0,.313-.084c.065-.02.133-.035.2-.061a2.44,2.44,0,0,0,.31-.158c.049-.028.1-.049.15-.08a2.692,2.692,0,0,0,.4-.321A2.6,2.6,0,0,0,24,12.42V9" style="fill:#af7a58"/><path d="M24,7.19a6.307,6.307,0,0,0-4.582-6,3.524,3.524,0,0,0-1.433.9A6,6,0,0,1,23,8v5a1.993,1.993,0,0,1-1.8,1.98c.041,0,.082.01.125.011a2.725,2.725,0,0,0,.327-.014c.075-.007.153-.01.226-.023a2.719,2.719,0,0,0,.313-.084c.065-.02.133-.035.2-.061a2.44,2.44,0,0,0,.31-.158c.049-.028.1-.049.15-.08a2.692,2.692,0,0,0,.4-.321A2.6,2.6,0,0,0,24,12.42V9l.13-.32A9.839,9.839,0,0,1,24,7.19Z" style="fill:#db996e"/><path d="M9,7a7.82,7.82,0,0,1-1.98,4.98C5,10.27,5,7,5,7H8a5.025,5.025,0,0,0,.98-.09Z" style="fill:#9a6948"/><path d="M8.69,8.967A8.253,8.253,0,0,0,9,7l-.02-.09A5.025,5.025,0,0,1,8,7H5a8.844,8.844,0,0,0,.293,2h3C8.435,9,8.555,8.975,8.69,8.967Z" style="fill:#af7a58"/><path d="M30,1V16a2,2,0,0,1-2,2h0v3h4V1Z" style="fill:#71a2e6"/><path d="M42,49V44l-7.586-7.586a2,2,0,0,1,0-2.828L34.5,33.5l-1.46-1.46-3.32,2.61L30,35,40,45v8.41a5.083,5.083,0,0,1,4,0V51A2,2,0,0,1,42,49Z" style="fill:#31c0e5"/><path d="M55,12,12,46v2a2,2,0,0,1-2,2v3.41a5.083,5.083,0,0,1,4,0V47L29.72,34.65l3.32-2.61L47.09,21,56,14h6V12Z" style="fill:#71a2e6"/><path d="M40.018,18.167A3.685,3.685,0,0,1,34,15.315V1H32V21h8l.07.08,7.92-6.3a14.008,14.008,0,0,0-.339-2.858Z" style="fill:#66d8ff"/><path d="M2,41v4a4,4,0,0,0,4,4h4V45H6A4,4,0,0,1,2,41Z" style="fill:#eba5af"/><path d="M48,45H46l-2-2v6h4a4,4,0,0,0,4-4V41A4,4,0,0,1,48,45Z" style="fill:#eba5af"/><path d="M25.639,41.427l6.042-4.746L30,35l-.28-.35L16.546,45h0L14,47v2H40V45H26.875A2,2,0,0,1,25.639,41.427Z" style="fill:#eba5af"/><ellipse cx="42.684" cy="8.695" rx="1.642" ry="2.286" transform="translate(6.362 32.741) rotate(-45.02)" style="fill:#f6fafd"/><ellipse cx="47.684" cy="40.695" rx="1.642" ry="2.286" transform="translate(-14.807 45.658) rotate(-45.02)" style="fill:#f6fafd"/><ellipse cx="38.682" cy="5.708" rx="0.825" ry="1.148" transform="translate(7.301 29.035) rotate(-45.02)" style="fill:#f6fafd"/><ellipse cx="38.427" cy="9.208" rx="0.413" ry="0.574" transform="translate(4.751 29.881) rotate(-45.02)" style="fill:#f6fafd"/><path d="M12,60a2,2,0,1,1,2-2A2.006,2.006,0,0,1,12,60Z" style="fill:#333940"/><path d="M12,55a3,3,0,1,0,3,3A3,3,0,0,0,12,55Zm0,4a1,1,0,1,1,1-1A1,1,0,0,1,12,59Z"/><path d="M42,55a3,3,0,1,0,3,3A3,3,0,0,0,42,55Zm0,4a1,1,0,1,1,1-1A1,1,0,0,1,42,59Z"/><path d="M62,9H54a1,1,0,0,0-.623.218l-4.554,3.623A15.055,15.055,0,0,0,34,0H28a1,1,0,0,0-1,1V12.023a5.977,5.977,0,0,1-2-4.847,7.463,7.463,0,0,0-2.29-5.25A6.8,6.8,0,0,0,17.791,0c-2.832.082-4.281,1.822-5.56,3.356C11.2,4.591,10.315,5.657,8.785,5.93A4.049,4.049,0,0,1,8,6H5A1,1,0,0,0,4,7c0,.152.027,3.756,2.369,5.739A5.4,5.4,0,0,0,10,14h1.041a16.043,16.043,0,0,0,1.493,6H2a1,1,0,0,0-1,1V45a5.006,5.006,0,0,0,5,5H9v2.813a6,6,0,1,0,6,0V47.486L29.6,36.014l9.4,9.4v7.4a6,6,0,1,0,6,0V50h3a5.006,5.006,0,0,0,5-5V21a1,1,0,0,0-1-1H49.982l6.364-5H62a1,1,0,0,0,1-1V10A1,1,0,0,0,62,9ZM7.89,8a6.859,6.859,0,0,1-.913,2.422A6.391,6.391,0,0,1,6.1,8ZM13,13a1,1,0,0,0-1-1H10a3.842,3.842,0,0,1-1.482-.277A9.043,9.043,0,0,0,9.953,7.694a8.566,8.566,0,0,0,3.815-3.057C14.922,3.252,15.919,2.056,17.849,2a4.777,4.777,0,0,1,3.479,1.371A5.447,5.447,0,0,1,23,7.206c0,.274.036.531.058.794H23v4.42A1.561,1.561,0,0,1,21.42,14a1.576,1.576,0,0,1-1.557-1.4,23.051,23.051,0,0,0-1.969-7.043l-1.788.9a21.221,21.221,0,0,1,1.77,6.376,3.562,3.562,0,0,0,7.082.031A6.27,6.27,0,0,0,27,14.334V20H14.922C13.361,18.19,13,14.383,13,13ZM6,48a3,3,0,0,1-3-3V22H35V20H33V18H31v2H29V2h2V12h2V2h1A13.033,13.033,0,0,1,46.959,14.323L9.377,44.218A1,1,0,0,0,9,45v3Zm6,14a4,4,0,0,1-1.6-7.673,4.127,4.127,0,0,1,3.2,0A4,4,0,0,1,12,62ZM31.184,34.77l1.776-1.4L43,43.414v8.678a6.1,6.1,0,0,0-2,0V45a1,1,0,0,0-.293-.707ZM42,62a4,4,0,0,1-1.6-7.673,4.127,4.127,0,0,1,3.2,0A4,4,0,0,1,42,62Zm9-40V45a3,3,0,0,1-3,3H45V43a1,1,0,0,0-.293-.707L34.544,32.13,47.437,22Zm10-9H56a1,1,0,0,0-.618.214l-42,33A1,1,0,0,0,13,47v5.092a6.1,6.1,0,0,0-2,0v-6.61L54.349,11H61Z"/><rect x="17" y="48" width="20" height="2"/><rect x="31" y="14" width="2" height="2"/></g></svg>