<svg xmlns="http://www.w3.org/2000/svg" viewBox="0 0 64 64"><title>05-towel</title><g id="_05-towel" data-name="05-towel"><rect x="17" y="51" width="36" height="4" style="fill:#8a8dff"/><rect x="11" y="18" width="6" height="28" style="fill:#f3afba"/><path d="M17,12v2H11V12a3,3,0,0,1,6,0Z" style="fill:#f3afba"/><rect x="53" y="14" width="4" height="4" style="fill:#7e8596"/><polygon points="17 14 17 18 11 18 7 18 7 14 11 14 17 14" style="fill:#7e8596"/><path d="M14,9H50a3,3,0,0,1,3,3V51H17V12A3,3,0,0,0,14,9Z" style="fill:#fecfd5"/><polygon points="63 12 63 20 57 20 57 18 57 14 57 12 63 12" style="fill:#af7a58"/><polygon points="7 18 7 20 1 20 1 12 7 12 7 14 7 18" style="fill:#af7a58"/><path d="M41,33.833C41,36.6,38.314,38,35,38s-6-1.405-6-4.167A6.239,6.239,0,0,1,35,28,6.239,6.239,0,0,1,41,33.833Z" style="fill:#ffc9bd"/><circle cx="38" cy="24" r="2" style="fill:#ffb4a3"/><circle cx="32" cy="24" r="2" style="fill:#ffb4a3"/><circle cx="43" cy="28" r="2" style="fill:#ffb4a3"/><circle cx="27" cy="28" r="2" style="fill:#ffb4a3"/><path d="M37,31a2,2,0,0,0-4,0,2,2,0,0,0-2,2,4,4,0,0,0,8,0A2,2,0,0,0,37,31Z" style="fill:#faa592"/><path d="M11,21a4,4,0,0,1,4,4V46h2V18H11Z" style="fill:#da9ea8"/><path d="M14,9a2.985,2.985,0,0,0-2.86,2.14A2.95,2.95,0,0,1,12,11a3,3,0,0,1,3,3h2V12A3,3,0,0,0,14,9Z" style="fill:#da9ea8"/><path d="M55,14v1a1,1,0,0,1-1,1H53v2h4V14Z" style="fill:#636978"/><path d="M15,14v1a1,1,0,0,1-1,1H10a1,1,0,0,1-1-1V14H7v4H17V14Z" style="fill:#636978"/><path d="M59,12v3a2,2,0,0,0,2,2h2v3H57V12Z" style="fill:#845335"/><path d="M5,12v3a2,2,0,0,1-2,2H1v3H7V12Z" style="fill:#845335"/><path d="M50,9H14a3,3,0,0,1,3,3H53A3,3,0,0,0,50,9Z" style="fill:#fed9d8"/><path d="M38,53a15.924,15.924,0,0,1-7.74-2H17v4H53V53Z" style="fill:#7a7ef4"/><path d="M22,37V12H17V51H30.26A15.99,15.99,0,0,1,22,37Z" style="fill:#f3afba"/><path d="M33,32a2,2,0,0,1,4,0,2,2,0,0,1,1.945,1.549A3.973,3.973,0,0,0,39,33a2,2,0,0,0-2-2,2,2,0,0,0-4,0,2,2,0,0,0-2,2,3.973,3.973,0,0,0,.055.549A2,2,0,0,1,33,32Z" style="fill:#ffb4a3"/><ellipse cx="48.684" cy="12.695" rx="1.642" ry="2.286" transform="translate(5.292 38.158) rotate(-45.02)" style="fill:#f6fafd"/><ellipse cx="48.682" cy="16.708" rx="0.825" ry="1.148" transform="translate(2.452 39.333) rotate(-45.02)" style="fill:#f6fafd"/><ellipse cx="36.682" cy="33.708" rx="0.825" ry="1.148" transform="translate(-13.091 35.828) rotate(-45.02)" style="fill:#f6fafd"/><path d="M38.03,23.369c-.168-.262-.125-.546.094-.634a.634.634,0,0,1,.7.313c.167.261.125.545-.094.634" style="fill:#f6fafd"/><rect x="15" y="29" width="2" height="10" rx="1" ry="1" style="fill:#b88d97"/><rect x="15" y="40" width="2" height="4" rx="1" ry="1" style="fill:#b88d97"/><path d="M63,11H57a1,1,0,0,0-1,1v1H54V12a4,4,0,0,0-4-4H14a4,4,0,0,0-4,4h2a2,2,0,0,1,4,0v1H8V12a1,1,0,0,0-1-1H1a1,1,0,0,0-1,1v8a1,1,0,0,0,1,1H7a1,1,0,0,0,1-1V19h8V55a1,1,0,0,0,1,1H53a1,1,0,0,0,1-1V28H52V50H18V12a3.959,3.959,0,0,0-.556-2H50a2,2,0,0,1,2,2V22h2V19h2v1a1,1,0,0,0,1,1h6a1,1,0,0,0,1-1V12A1,1,0,0,0,63,11ZM6,19H2V13H6Zm2-2V15h8v2ZM52,52v2H18V52Zm2-35V15h2v2Zm8,2H58V13h4Z"/><rect x="52" y="24" width="2" height="2"/><path d="M12,21H10V46a1,1,0,0,0,1,1h3V45H12Z"/><path d="M35,39c4.252,0,7-2.028,7-5.167A7.193,7.193,0,0,0,35,27a7.193,7.193,0,0,0-7,6.833C28,36.972,30.748,39,35,39Zm0-10a5.254,5.254,0,0,1,5,4.833C40,36.168,37.417,37,35,37s-5-.832-5-3.167A5.254,5.254,0,0,1,35,29Z"/><path d="M38,27a3,3,0,1,0-3-3A3,3,0,0,0,38,27Zm0-4a1,1,0,1,1-1,1A1,1,0,0,1,38,23Z"/><path d="M32,27a3,3,0,1,0-3-3A3,3,0,0,0,32,27Zm0-4a1,1,0,1,1-1,1A1,1,0,0,1,32,23Z"/><path d="M46,28a3,3,0,1,0-3,3A3,3,0,0,0,46,28Zm-4,0a1,1,0,1,1,1,1A1,1,0,0,1,42,28Z"/><path d="M24,28a3,3,0,1,0,3-3A3,3,0,0,0,24,28Zm4,0a1,1,0,1,1-1-1A1,1,0,0,1,28,28Z"/></g></svg>