<svg xmlns="http://www.w3.org/2000/svg" viewBox="0 0 64 64"><title>15-washing</title><g id="_15-washing" data-name="15-washing"><rect x="50" y="4" width="4" height="4" style="fill:#8a8dff"/><rect x="29" y="4" width="4" height="4" style="fill:#8a8dff"/><rect x="8" y="4" width="4" height="4" style="fill:#8a8dff"/><polygon points="63 59 63 63 1 63 1 59 24 59 31 59 43 59 50 59 63 59" style="fill:#dce1eb"/><polygon points="60 14 60 18 44 18 44 14 46 14 58 14 60 14" style="fill:#7baef5"/><polygon points="58 11 58 14 46 14 46 11 49 8 50 8 54 8 55 8 58 11" style="fill:#fec9d3"/><path d="M58,31a2,2,0,0,1-4,0c0-1.1,2-4,2-4S58,29.9,58,31Z" style="fill:#7dd5f5"/><path d="M51,26a2,2,0,0,1-4,0c0-1.1,2-4,2-4S51,24.9,51,26Z" style="fill:#7dd5f5"/><path d="M40,31a2,2,0,0,1-4,0c0-1.1,2-4,2-4S40,29.9,40,31Z" style="fill:#7dd5f5"/><polygon points="39 14 39 18 23 18 23 14 25 14 37 14 39 14" style="fill:#7baef5"/><polygon points="37 11 37 14 25 14 25 11 28 8 29 8 33 8 34 8 37 11" style="fill:#fec9d3"/><path d="M33,26a2,2,0,0,1-4,0c0-1.1,2-4,2-4S33,24.9,33,26Z" style="fill:#7dd5f5"/><polygon points="16 11 16 14 4 14 4 11 7 8 8 8 12 8 13 8 16 11" style="fill:#fec9d3"/><path d="M12,26a2,2,0,0,1-4,0c0-1.1,2-4,2-4S12,24.9,12,26Z" style="fill:#7dd5f5"/><path d="M5,31a2,2,0,0,1-4,0c0-1.1,2-4,2-4S5,29.9,5,31Z" style="fill:#7dd5f5"/><path d="M14,35a7.82,7.82,0,0,1-1.98,4.98C10,38.27,10,35,10,35h3a5.025,5.025,0,0,0,.98-.09Z" style="fill:#9a6948"/><path d="M45,42H35c-2.64,0-5.27-1.55-5.87-5.32A9.839,9.839,0,0,1,29,35.19,6.192,6.192,0,0,0,22.82,29c-4.48.13-4.85,5.2-8.84,5.91L14,35a7.82,7.82,0,0,1-1.98,4.98A4.4,4.4,0,0,0,15,41h2a19.547,19.547,0,0,0,.26,2.85C17.7,46.48,18.88,50,22,50c0,0,0,4,4,4v3l-3,2h7V54H43l.06-.38A6.279,6.279,0,0,0,45,54v3l-3,2h7V54a3,3,0,0,0,3-3V49C52,42,45,42,45,42Z" style="fill:#f2cfa9"/><path d="M14,35a7.82,7.82,0,0,1-1.98,4.98C10,38.27,10,35,10,35h3a5.025,5.025,0,0,0,.98-.09Z" style="fill:#9a6948"/><path d="M45,42H35c-2.64,0-5.27-1.55-5.87-5.32A9.839,9.839,0,0,1,29,35.19,6.192,6.192,0,0,0,22.82,29c-4.48.13-4.85,5.2-8.84,5.91L14,35a7.82,7.82,0,0,1-1.98,4.98A4.4,4.4,0,0,0,15,41h2a19.547,19.547,0,0,0,.26,2.85C17.7,46.48,18.88,50,22,50c0,0,0,4,4,4v3l-3,2h7V54H45v3l-3,2h7V54a3,3,0,0,0,3-3V49C52,42,45,42,45,42Z" style="fill:#f2cfa9"/><path d="M26,54h0v3l-3,2h7V48a3,3,0,0,0-3-3H24.578A2.578,2.578,0,0,0,22,47.578V50a4,4,0,0,0,4,4Z" style="fill:#af7a58"/><path d="M49,49V59H42l3-2V54a6.279,6.279,0,0,1-1.94-.38A4.509,4.509,0,0,1,40,49V47h0a3,3,0,0,1,3-3h1a5,5,0,0,1,5,5Z" style="fill:#af7a58"/><path d="M29,37l.13-.32A9.839,9.839,0,0,1,29,35.19a6.307,6.307,0,0,0-4.582-6A3.488,3.488,0,0,0,22,32.5a7.344,7.344,0,0,0,.493,2.651,23.14,23.14,0,0,1,1.3,4.969c.025.157.049.32.069.485a2.744,2.744,0,0,0,1.482,2.145c.014.007.027.015.041.021a2.535,2.535,0,0,0,.295.108c.061.019.122.039.185.053a2.2,2.2,0,0,0,.23.037c.078.01.156.019.236.022a2.725,2.725,0,0,0,.327-.014c.075-.007.153-.01.226-.023a2.719,2.719,0,0,0,.313-.084c.065-.02.133-.035.2-.061a2.44,2.44,0,0,0,.31-.158c.049-.028.1-.049.15-.08a2.692,2.692,0,0,0,.4-.321A2.6,2.6,0,0,0,29,40.42V37" style="fill:#af7a58"/><path d="M13.69,36.967A8.253,8.253,0,0,0,14,35l-.02-.09A5.025,5.025,0,0,1,13,35H10a8.844,8.844,0,0,0,.293,2h3C13.435,37,13.555,36.975,13.69,36.967Z" style="fill:#af7a58"/><path d="M29,35.19a6.307,6.307,0,0,0-4.582-6,3.524,3.524,0,0,0-1.433.9A6,6,0,0,1,28,36v5a1.993,1.993,0,0,1-1.8,1.98c.041,0,.082.01.125.011a2.725,2.725,0,0,0,.327-.014c.075-.007.153-.01.226-.023a2.719,2.719,0,0,0,.313-.084c.065-.02.133-.035.2-.061a2.44,2.44,0,0,0,.31-.158c.049-.028.1-.049.15-.08a2.692,2.692,0,0,0,.4-.321A2.6,2.6,0,0,0,29,40.42V37l.13-.32A9.839,9.839,0,0,1,29,35.19Z" style="fill:#db996e"/><path d="M27.85,42.571c-.047.031-.1.052-.15.08a2.44,2.44,0,0,1-.31.158c-.063.026-.131.041-.2.061a2.719,2.719,0,0,1-.313.084c-.073.013-.151.016-.226.023a2.725,2.725,0,0,1-.327.014c-.08,0-.158-.012-.236-.022a2.2,2.2,0,0,1-.23-.037c-.063-.014-.124-.034-.185-.053a2.535,2.535,0,0,1-.295-.108c-.014-.006-.027-.014-.041-.021A2.744,2.744,0,0,1,23.859,40.6c-.02-.165-.044-.328-.069-.485a23.14,23.14,0,0,0-1.3-4.969A7.344,7.344,0,0,1,22,32.5a3.488,3.488,0,0,1,2.418-3.312,5.936,5.936,0,0,0-.791-.15A2.989,2.989,0,0,0,21,32v.539a9.151,9.151,0,0,0,.087,1.2A3.483,3.483,0,0,0,21,34.5a7.338,7.338,0,0,0,.437,2.482,2.436,2.436,0,0,1-.766,1.081L17,41a19.547,19.547,0,0,0,.26,2.85C17.7,46.48,18.88,50,22,50V47.9a4.947,4.947,0,0,1-3.359-2.49,1.982,1.982,0,0,1,.9-2.692L22.1,41.445a.621.621,0,0,1,.9.564A2,2,0,0,0,25,44h1a1.994,1.994,0,0,0,1.926-1.491A.931.931,0,0,1,27.85,42.571Z" style="fill:#e9b789"/><path d="M50,51H49v3a3,3,0,0,0,3-3V49A2,2,0,0,1,50,51Z" style="fill:#e9b789"/><path d="M40,49V47a3,3,0,0,1,3-3H42a3,3,0,0,0-3,3v2a3,3,0,0,1-3,3H30v2H45a6.279,6.279,0,0,1-1.94-.38A4.509,4.509,0,0,1,40,49Z" style="fill:#e9b789"/><path d="M27,45H24.578a2.575,2.575,0,0,0-2.507,2H26a2,2,0,0,1,2,2v8a2,2,0,0,0,2,2h0V48A3,3,0,0,0,27,45Z" style="fill:#db996e"/><path d="M44,44H43a2.99,2.99,0,0,0-2.816,2H42a5,5,0,0,1,5,5v6a2,2,0,0,0,2,2h0V49A5,5,0,0,0,44,44Z" style="fill:#db996e"/><path d="M23.626,29.038A5.654,5.654,0,0,0,22.82,29c-4.48.13-4.85,5.2-8.84,5.91L14,35a8.253,8.253,0,0,1-.31,1.967,5.971,5.971,0,0,0,.679-.057c3.241-.525,4.309-3.433,6.636-4.966A2.987,2.987,0,0,1,23.626,29.038Z" style="fill:#ffe2c2"/><ellipse cx="25.684" cy="32.695" rx="1.642" ry="2.286" transform="translate(-15.598 27.752) rotate(-45.02)" style="fill:#f6fafd"/><ellipse cx="36.682" cy="44.708" rx="0.825" ry="1.148" transform="translate(-20.872 39.052) rotate(-45.02)" style="fill:#f6fafd"/><ellipse cx="34.427" cy="44.208" rx="0.413" ry="0.574" transform="translate(-21.179 37.311) rotate(-45.02)" style="fill:#f6fafd"/><polygon points="18 14 18 18 2 18 2 14 4 14 16 14 18 14" style="fill:#7baef5"/><rect x="1" y="1" width="62" height="3" style="fill:#31c0e5"/><path d="M4,59H4a2,2,0,0,0,2,2H58a2,2,0,0,0,2-2h3v4H1V59Z" style="fill:#afb4c8"/><rect x="46" y="11" width="12" height="3" style="fill:#31c0e5"/><rect x="25" y="11" width="12" height="3" style="fill:#31c0e5"/><rect x="4" y="11" width="12" height="3" style="fill:#31c0e5"/><path d="M46,14h0a2,2,0,0,0,2,2h8a2,2,0,0,0,2-2h2v4H44V14Z" style="fill:#71a2e6"/><path d="M25,14h0a2,2,0,0,0,2,2h8a2,2,0,0,0,2-2h2v4H23V14Z" style="fill:#71a2e6"/><path d="M4,14H4a2,2,0,0,0,2,2h8a2,2,0,0,0,2-2h2v4H2V14Z" style="fill:#71a2e6"/><rect x="6" y="58" width="2" height="2"/><path d="M63,58H50V54.858A4,4,0,0,0,53,51V49c0-6.328-5.233-8-8-8H35c-1.15,0-4.911-.42-5-5.824a7.466,7.466,0,0,0-2.29-5.251A6.821,6.821,0,0,0,22.791,28c-2.832.083-4.281,1.822-5.56,3.357-1.028,1.234-1.916,2.3-3.446,2.573A4.049,4.049,0,0,1,13,34H10a1,1,0,0,0-1,1c0,.152.027,3.756,2.369,5.739A5.4,5.4,0,0,0,15,42h1.04c.162,2.376.975,8.164,5.046,8.918A4.675,4.675,0,0,0,25,54.911v1.554L22.7,58H10v2H62v2H2V60H4V58H1a1,1,0,0,0-1,1v4a1,1,0,0,0,1,1H63a1,1,0,0,0,1-1V59A1,1,0,0,0,63,58ZM11.1,36H13a6.105,6.105,0,0,0,.9-.07,6.493,6.493,0,0,1-1.4,3.129A5.586,5.586,0,0,1,11.1,36ZM25,51v1.872A2.912,2.912,0,0,1,23,50a1,1,0,0,0-1-1c-3.88,0-4-7.921-4-8a1,1,0,0,0-1-1H15a4.658,4.658,0,0,1-.65-.046,9.088,9.088,0,0,0,1.643-4.736,10.558,10.558,0,0,0,2.775-2.581c1.154-1.385,2.151-2.581,4.081-2.637a4.835,4.835,0,0,1,3.478,1.371A5.449,5.449,0,0,1,28,35.207c0,.275.025.535.045.793H28v4.42A1.561,1.561,0,0,1,26.42,42,1.576,1.576,0,0,1,24.863,40.6a23.051,23.051,0,0,0-1.969-7.043l-1.788.9a21.221,21.221,0,0,1,1.77,6.376,3.561,3.561,0,0,0,7.081.038A6.8,6.8,0,0,0,35,43H45c.614,0,6,.2,6,6v2a1.993,1.993,0,0,1-1,1.722V49H48v9H45.3l.252-.168A1,1,0,0,0,46,57V54a1,1,0,0,0-1-1c-.163,0-4-.046-4-4V47H39v2a5.835,5.835,0,0,0,1.367,4H33v2H44v1.465L41.7,58H31V51H29v7H26.3l.252-.168A1,1,0,0,0,27,57V51Z"/><path d="M63,0H1A1,1,0,0,0,0,1V4A1,1,0,0,0,1,5H7V7a1,1,0,0,0-.707.293l-3,3A1,1,0,0,0,3,11v2H2a1,1,0,0,0-1,1v4a1,1,0,0,0,1,1H18a1,1,0,0,0,1-1V14a1,1,0,0,0-1-1H17V11a1,1,0,0,0-.293-.707l-3-3A1,1,0,0,0,13,7V5H28V7a1,1,0,0,0-.707.293l-3,3A1,1,0,0,0,24,11v2H23a1,1,0,0,0-1,1v4a1,1,0,0,0,1,1H39a1,1,0,0,0,1-1V14a1,1,0,0,0-1-1H38V11a1,1,0,0,0-.293-.707l-3-3A1,1,0,0,0,34,7V5H49V7a1,1,0,0,0-.707.293l-3,3A1,1,0,0,0,45,11v2H44a1,1,0,0,0-1,1v4a1,1,0,0,0,1,1H60a1,1,0,0,0,1-1V14a1,1,0,0,0-1-1H59V11a1,1,0,0,0-.293-.707L56,7.586V5h7a1,1,0,0,0,1-1V1A1,1,0,0,0,63,0ZM17,17H3V15H17Zm-2-5.586V13H5V11.414L7.414,9h5.172ZM11,7H9V5h2ZM38,17H24V15H38Zm-2-5.586V13H26V11.414L28.414,9h5.172ZM32,7H30V5h2Zm25,6H55v2h4v2H45V15h8V13H47V11.414L49.414,9h5.172L57,11.414ZM54,7H51V5h3Zm8-4H2V2H62Z"/><path d="M34,26c0-1.274-1.522-3.619-2.177-4.568a1.038,1.038,0,0,0-1.646,0C29.522,22.381,28,24.726,28,26a3,3,0,0,0,6,0Zm-4,0a7.538,7.538,0,0,1,1-2.146A7.526,7.526,0,0,1,32,26a1,1,0,0,1-2,0Z"/><path d="M41,31c0-1.274-1.522-3.619-2.177-4.568a1.038,1.038,0,0,0-1.646,0C36.522,27.381,35,29.726,35,31a3,3,0,0,0,6,0Zm-4,0a7.538,7.538,0,0,1,1-2.146A7.526,7.526,0,0,1,39,31a1,1,0,0,1-2,0Z"/><path d="M52,26c0-1.274-1.522-3.619-2.177-4.568a1.038,1.038,0,0,0-1.646,0C47.522,22.381,46,24.726,46,26a3,3,0,0,0,6,0Zm-4,0a7.538,7.538,0,0,1,1-2.146A7.526,7.526,0,0,1,50,26a1,1,0,0,1-2,0Z"/><path d="M59,31c0-1.274-1.522-3.619-2.177-4.568a1.038,1.038,0,0,0-1.646,0C54.522,27.381,53,29.726,53,31a3,3,0,0,0,6,0Zm-4,0a7.538,7.538,0,0,1,1-2.146A7.526,7.526,0,0,1,57,31a1,1,0,0,1-2,0Z"/><path d="M13,26c0-1.274-1.522-3.619-2.177-4.568a1.038,1.038,0,0,0-1.646,0C8.522,22.381,7,24.726,7,26a3,3,0,0,0,6,0ZM9,26a7.538,7.538,0,0,1,1-2.146A7.526,7.526,0,0,1,11,26a1,1,0,0,1-2,0Z"/><path d="M2.177,26.432C1.522,27.381,0,29.726,0,31a3,3,0,0,0,6,0c0-1.274-1.522-3.619-2.177-4.568A1.038,1.038,0,0,0,2.177,26.432ZM3,32a1,1,0,0,1-1-1,7.538,7.538,0,0,1,1-2.146A7.526,7.526,0,0,1,4,31,1,1,0,0,1,3,32Z"/></g></svg>