<svg xmlns="http://www.w3.org/2000/svg" viewBox="0 0 64 64"><title>16-paw care</title><g id="_16-paw_care" data-name="16-paw care"><ellipse cx="41" cy="15" rx="2" ry="3" style="fill:#f9bbc6"/><path d="M11,16c-.866,0-1.6-.836-1.877-2A4.285,4.285,0,0,0,9,15c0,1.66.9,3,2,3s2-1.34,2-3a4.285,4.285,0,0,0-.123-1C12.6,15.164,11.866,16,11,16Z" style="fill:#f2aab5"/><ellipse cx="11" cy="15" rx="2" ry="3" style="fill:#f9bbc6"/><circle cx="20" cy="8" r="3" style="fill:#f9bbc6"/><circle cx="32" cy="8" r="3" style="fill:#f9bbc6"/><path d="M32,24c3.31,0,6,2.24,6,5s-2.69,5-6,5c-2.91,0-5.33-1.72-5.88-4.01-.04,0-.08.01-.12.01s-.08-.01-.12-.01C25.33,32.28,22.91,34,20,34c-3.31,0-6-2.24-6-5s2.69-5,6-5a6,6,0,0,1,12,0Z" style="fill:#f2aab5"/><path d="M48,39a2.006,2.006,0,0,1,2,2,2.015,2.015,0,0,1-2,2H42a2.006,2.006,0,0,1-2-2,2.015,2.015,0,0,1,2-2c3,0,6-3,6-3Z" style="fill:#fec9d3"/><path d="M54.41,43.59A1.955,1.955,0,0,1,55,45a2.006,2.006,0,0,1-2,2H37a2.015,2.015,0,0,1-2-2,1.993,1.993,0,0,1,1.87-1.99A.57.57,0,0,1,37,43H53A1.955,1.955,0,0,1,54.41,43.59Z" style="fill:#fec9d3"/><polygon points="58 47 58 52 32 52 32 47 37 47 53 47 58 47" style="fill:#f3afba"/><rect x="32" y="52" width="26" height="11" style="fill:#7baef5"/><path d="M43,15c0-1.66-.9-3-2-3s-2,1.34-2,3,.9,3,2,3S43,16.66,43,15ZM11,12c-1.1,0-2,1.34-2,3s.9,3,2,3,2-1.34,2-3S12.1,12,11,12ZM35,45a2.015,2.015,0,0,0,2,2H32V63H13c0-12.91,2.22-18.41,2.84-24.8A15.575,15.575,0,0,1,8,25a14.285,14.285,0,0,1,.56-3.89A7.787,7.787,0,0,1,6,15c0-3.87,2.24-7,5-7a3.8,3.8,0,0,1,2.03.61C13.01,8.41,13,8.2,13,8A6.994,6.994,0,0,1,26,4.41,6.994,6.994,0,0,1,39,8c0,.2-.01.41-.03.61A3.8,3.8,0,0,1,41,8c2.76,0,5,3.13,5,7a7.787,7.787,0,0,1-2.56,6.11A14.285,14.285,0,0,1,44,25a15.575,15.575,0,0,1-7.84,13.2c.16,1.62.42,3.17.71,4.81A1.993,1.993,0,0,0,35,45Zm3-16c0-2.76-2.69-5-6-5a6,6,0,0,0-12,0c-3.31,0-6,2.24-6,5s2.69,5,6,5c2.91,0,5.33-1.72,5.88-4.01.04,0,.08.01.12.01s.08-.01.12-.01C26.67,32.28,29.09,34,32,34,35.31,34,38,31.76,38,29ZM35,8a3,3,0,1,0-3,3A3,3,0,0,0,35,8ZM23,8a3,3,0,1,0-3,3A3,3,0,0,0,23,8Z" style="fill:#f2cfa9"/><path d="M26.12,35.99c-.04,0-.08.01-.12.01s-.08-.01-.12-.01C25.33,38.28,22.91,40,20,40a6.635,6.635,0,0,1-4.2-1.435C15.132,44.8,13,50.338,13,63H32V47h5a2.015,2.015,0,0,1-2-2,1.993,1.993,0,0,1,1.87-1.99c-.268-1.516-.5-2.959-.664-4.448A6.64,6.64,0,0,1,32,40C29.09,40,26.67,38.28,26.12,35.99Z" style="fill:#e9b789"/><path d="M41,18c-.866,0-1.6-.836-1.877-2A4.285,4.285,0,0,0,39,17c0,1.66.9,3,2,3s2-1.34,2-3a4.285,4.285,0,0,0-.123-1C42.6,17.164,41.866,18,41,18Z" style="fill:#e9b789"/><path d="M32,9a2.986,2.986,0,0,1-2.817-2,3,3,0,1,0,5.634,0A2.986,2.986,0,0,1,32,9Z" style="fill:#f2aab5"/><path d="M20,9a2.986,2.986,0,0,1-2.817-2,3,3,0,1,0,5.634,0A2.986,2.986,0,0,1,20,9Z" style="fill:#f2aab5"/><path d="M20,27a6,6,0,0,1,12,0,5.989,5.989,0,0,1,5.724,3.5A4.228,4.228,0,0,0,38,29c0-2.76-2.69-5-6-5a6,6,0,0,0-12,0c-3.31,0-6,2.24-6,5a4.228,4.228,0,0,0,.276,1.5A5.989,5.989,0,0,1,20,27Z" style="fill:#f9bbc6"/><path d="M48,39V36a13.644,13.644,0,0,1-3,2.162V39a2.006,2.006,0,0,1,2,2,2.015,2.015,0,0,1-2,2h3a2.015,2.015,0,0,0,2-2A2.006,2.006,0,0,0,48,39Z" style="fill:#fed9d8"/><path d="M54.41,43.59A1.955,1.955,0,0,0,53,43H37a.57.57,0,0,0-.13.01,1.983,1.983,0,0,0-1.594.99H50a1.985,1.985,0,0,1,1.721,3H53a2.006,2.006,0,0,0,2-2A1.955,1.955,0,0,0,54.41,43.59Z" style="fill:#fed9d8"/><polygon points="27 47 27 52 27 63 32 63 32 52 32 47 27 47" style="fill:#d99c64"/><path d="M11,11a3.8,3.8,0,0,1,2.03.61c-.02-.2-.03-.41-.03-.61A6.994,6.994,0,0,1,26,7.41,6.994,6.994,0,0,1,39,11c0,.2-.01.41-.03.61A3.8,3.8,0,0,1,41,11c2.385,0,4.379,2.34,4.877,5.473A9.565,9.565,0,0,0,46,15c0-3.87-2.24-7-5-7a3.8,3.8,0,0,0-2.03.61c.02-.2.03-.41.03-.61A6.994,6.994,0,0,0,26,4.41,6.994,6.994,0,0,0,13,8c0,.2.01.41.03.61A3.8,3.8,0,0,0,11,8c-2.76,0-5,3.13-5,7a9.565,9.565,0,0,0,.123,1.473C6.621,13.34,8.615,11,11,11Z" style="fill:#ffe2c2"/><path d="M32,11a2.986,2.986,0,0,1-2.817-2,3,3,0,1,0,5.634,0A2.986,2.986,0,0,1,32,11Z" style="fill:#e9b789"/><path d="M20,11a2.986,2.986,0,0,1-2.817-2,3,3,0,1,0,5.634,0A2.986,2.986,0,0,1,20,11Z" style="fill:#e9b789"/><path d="M41,16c-.866,0-1.6-.836-1.877-2A4.285,4.285,0,0,0,39,15c0,1.66.9,3,2,3s2-1.34,2-3a4.285,4.285,0,0,0-.123-1C42.6,15.164,41.866,16,41,16Z" style="fill:#f2aab5"/><path d="M11,16c-.866,0-1.6-.836-1.877-2A4.285,4.285,0,0,0,9,15c0,1.66.9,3,2,3s2-1.34,2-3a4.285,4.285,0,0,0-.123-1C12.6,15.164,11.866,16,11,16Z" style="fill:#f2aab5"/><path d="M11,18c-.866,0-1.6-.836-1.877-2A4.285,4.285,0,0,0,9,17c0,1.66.9,3,2,3s2-1.34,2-3a4.285,4.285,0,0,0-.123-1C12.6,17.164,11.866,18,11,18Z" style="fill:#e9b789"/><path d="M32,34c-2.91,0-5.33-1.72-5.88-4.01-.04,0-.08.01-.12.01s-.08-.01-.12-.01C25.33,32.28,22.91,34,20,34a5.989,5.989,0,0,1-5.724-3.5A4.228,4.228,0,0,0,14,32c0,2.76,2.69,5,6,5,2.91,0,5.33-1.72,5.88-4.01.04,0,.08.01.12.01s.08-.01.12-.01C26.67,35.28,29.09,37,32,37c3.31,0,6-2.24,6-5a4.228,4.228,0,0,0-.276-1.5A5.989,5.989,0,0,1,32,34Z" style="fill:#e9b789"/><rect x="32" y="47" width="3" height="5" style="fill:#e0a3ab"/><rect x="55" y="47" width="3" height="5" style="fill:#e0a3ab"/><path d="M55,59a2,2,0,0,1-2,2H37a2,2,0,0,1-2-2V52H32V63H58V52H55Z" style="fill:#71a2e6"/><path d="M35,45a1.993,1.993,0,0,1,1.87-1.99A.57.57,0,0,1,37,43H34a.57.57,0,0,0-.13.01A1.993,1.993,0,0,0,32,45a2.015,2.015,0,0,0,2,2h3a2.015,2.015,0,0,1-2-2Z" style="fill:#d99c64"/><rect x="38" y="61" width="9" height="2" rx="1" ry="1" style="fill:#6997d6"/><rect x="48" y="61" width="4" height="2" rx="1" ry="1" style="fill:#6997d6"/><ellipse cx="27.684" cy="23.695" rx="1.642" ry="2.286" transform="translate(-8.645 26.528) rotate(-45.02)" style="fill:#f6fafd"/><ellipse cx="18.682" cy="29.708" rx="0.825" ry="1.148" transform="translate(-15.538 21.923) rotate(-45.02)" style="fill:#f6fafd"/><ellipse cx="45.682" cy="40.708" rx="0.825" ry="1.148" transform="translate(-15.404 44.246) rotate(-45.02)" style="fill:#f6fafd"/><path d="M58,46H55.816A2.966,2.966,0,0,0,56,45a3.015,3.015,0,0,0-3-3H50.818A2.968,2.968,0,0,0,49,38.171V36a1,1,0,0,0-1.706-.708C47.267,35.319,44.543,38,42,38a3.015,3.015,0,0,0-3,3,2.966,2.966,0,0,0,.184,1H37a1.638,1.638,0,0,0-.252.016A2.971,2.971,0,0,0,34.181,46H32a1,1,0,0,0-1,1V63a1,1,0,0,0,1,1H58a1,1,0,0,0,1-1V57H57v5H33V53H57v2h2V47A1,1,0,0,0,58,46ZM41,41a.977.977,0,0,1,.307-.713A.959.959,0,0,1,42,40a9.185,9.185,0,0,0,5-1.889V39a1,1,0,0,0,1,1,1,1,0,0,1,1,1,.977.977,0,0,1-.307.713A.959.959,0,0,1,48,42H42A1,1,0,0,1,41,41Zm-4.713,4.693A.959.959,0,0,1,36,45a.991.991,0,0,1,.929-.992A.792.792,0,0,0,37.01,44H53a.977.977,0,0,1,.713.307A.959.959,0,0,1,54,45a1,1,0,0,1-1,1H37A.977.977,0,0,1,36.287,45.693ZM33,48H57v3H33Z"/><path d="M20,35a7.333,7.333,0,0,0,6-2.91A7.333,7.333,0,0,0,32,35c3.859,0,7-2.691,7-6,0-3.037-2.645-5.553-6.063-5.947a7,7,0,0,0-13.874,0C15.645,23.447,13,25.963,13,29,13,32.309,16.141,35,20,35Zm0-10a1,1,0,0,0,1-1,5,5,0,0,1,10,0,1,1,0,0,0,1,1c2.757,0,5,1.794,5,4s-2.243,4-5,4c-2.393,0-4.456-1.364-4.907-3.243a1,1,0,0,0-.973-.767c-.041,0-.081,0-.124.007s-.091-.007-.116-.007a1,1,0,0,0-.973.767C24.456,31.636,22.393,33,20,33c-2.757,0-5-1.794-5-4S17.243,25,20,25Z"/><path d="M36,8a4,4,0,1,0-4,4A4,4,0,0,0,36,8ZM30,8a2,2,0,1,1,2,2A2,2,0,0,1,30,8Z"/><path d="M41,19c1.683,0,3-1.757,3-4s-1.317-4-3-4-3,1.757-3,4S39.317,19,41,19Zm0-6c.4,0,1,.8,1,2s-.6,2-1,2-1-.8-1-2S40.6,13,41,13Z"/><path d="M11,11c-1.683,0-3,1.757-3,4s1.317,4,3,4,3-1.757,3-4S12.683,11,11,11Zm0,6c-.4,0-1-.8-1-2s.6-2,1-2,1,.8,1,2S11.4,17,11,17Z"/><path d="M24,8a4,4,0,1,0-4,4A4,4,0,0,0,24,8ZM18,8a2,2,0,1,1,2,2A2,2,0,0,1,18,8Z"/><path d="M15.829,44.688c.41-2.185.8-4.249,1.006-6.391a1,1,0,0,0-.475-.951A14.59,14.59,0,0,1,9,25a13.387,13.387,0,0,1,.522-3.619,1,1,0,0,0-.345-1.058A6.811,6.811,0,0,1,7,15c0-3.252,1.832-6,4-6a2.792,2.792,0,0,1,1.5.457,1,1,0,0,0,1.527-.949A5.082,5.082,0,0,1,14,8,5.994,5.994,0,0,1,25.142,4.923a1.039,1.039,0,0,0,1.716,0A5.994,5.994,0,0,1,38,8a5.082,5.082,0,0,1-.025.508,1,1,0,0,0,1.527.949A2.792,2.792,0,0,1,41,9c2.168,0,4,2.748,4,6a6.811,6.811,0,0,1-2.177,5.323,1,1,0,0,0-.345,1.058A13.387,13.387,0,0,1,43,25a14.59,14.59,0,0,1-7.36,12.346l1.041,1.709A16.576,16.576,0,0,0,45,25a15.061,15.061,0,0,0-.437-3.549A9.141,9.141,0,0,0,47,15c0-4.411-2.691-8-6-8a4.541,4.541,0,0,0-1.048.124A7.991,7.991,0,0,0,26,2.722a7.991,7.991,0,0,0-13.952,4.4A4.541,4.541,0,0,0,11,7c-3.309,0-6,3.589-6,8a9.141,9.141,0,0,0,2.437,6.451A15.061,15.061,0,0,0,7,25a16.489,16.489,0,0,0,7.78,13.714c-.208,1.831-.539,3.594-.917,5.6A91.044,91.044,0,0,0,12,63a1,1,0,0,0,1,1H29V62H14.005A87.959,87.959,0,0,1,15.829,44.688Z"/></g></svg>