<svg xmlns="http://www.w3.org/2000/svg" viewBox="0 0 64 64"><title>23-rasp</title><g id="_23-rasp" data-name="23-rasp"><path d="M50,29a14.285,14.285,0,0,0-.56-3.89A7.787,7.787,0,0,0,52,19c0-3.87-2.24-7-5-7a3.8,3.8,0,0,0-2.03.61c.02-.2.03-.41.03-.61A6.994,6.994,0,0,0,32,8.41,6.994,6.994,0,0,0,19,12c0,.2.01.41.03.61A3.8,3.8,0,0,0,17,12c-2.76,0-5,3.13-5,7a7.787,7.787,0,0,0,2.56,6.11A14.285,14.285,0,0,0,14,29a15.575,15.575,0,0,0,7.84,13.2c-.144,1.453-.373,2.858-.627,4.314A101.8,101.8,0,0,0,19.078,63H44.922a101.8,101.8,0,0,0-2.135-16.486c-.254-1.456-.483-2.861-.627-4.314A15.575,15.575,0,0,0,50,29Z" style="fill:#f2cfa9"/><path d="M51,14.8A4.727,4.727,0,0,0,47,12l2-4S50.95,9.95,51,14.8Z" style="fill:#e1f1fa"/><path d="M38,1a6.538,6.538,0,0,1,2.97,4.67,6.918,6.918,0,0,0-5.94,0A6.538,6.538,0,0,1,38,1Z" style="fill:#e1f1fa"/><path d="M26,1a6.538,6.538,0,0,1,2.97,4.67,6.918,6.918,0,0,0-5.94,0A6.538,6.538,0,0,1,26,1Z" style="fill:#e1f1fa"/><path d="M15,8l2,4a4.727,4.727,0,0,0-4,2.8C13.05,9.95,15,8,15,8Z" style="fill:#e1f1fa"/><ellipse cx="17" cy="19" rx="2" ry="3" style="fill:#f9bbc6"/><circle cx="26" cy="12" r="3" style="fill:#f9bbc6"/><circle cx="38" cy="12" r="3" style="fill:#f9bbc6"/><ellipse cx="47" cy="19" rx="2" ry="3" style="fill:#f9bbc6"/><path d="M38,28c3.31,0,6,2.24,6,5s-2.69,5-6,5c-2.91,0-5.33-1.72-5.88-4.01-.04,0-.08.01-.12.01s-.08-.01-.12-.01C31.33,36.28,28.91,38,26,38c-3.31,0-6-2.24-6-5s2.69-5,6-5a6,6,0,0,1,12,0Z" style="fill:#f2aab5"/><path d="M42.787,47.514c-.122-.7-.236-1.383-.34-2.068-.094-.624-.171-1.252-.241-1.884A6.64,6.64,0,0,1,38,45c-2.91,0-5.33-1.72-5.88-4.01-.04,0-.08.01-.12.01s-.08-.01-.12-.01C31.33,43.28,28.91,45,26,45a6.642,6.642,0,0,1-4.206-1.438v.006c-.145,1.322-.349,2.614-.581,3.946a107.339,107.339,0,0,0-2.04,14.6l0,.072c-.015.263-.026.542-.04.811H44.876A104.556,104.556,0,0,0,42.787,47.514Z" style="fill:#e9b789"/><path d="M47,22c-.866,0-1.6-.836-1.877-2A4.285,4.285,0,0,0,45,21c0,1.66.9,3,2,3s2-1.34,2-3a4.285,4.285,0,0,0-.123-1C48.6,21.164,47.866,22,47,22Z" style="fill:#e9b789"/><path d="M38,13a2.986,2.986,0,0,1-2.817-2,3,3,0,1,0,5.634,0A2.986,2.986,0,0,1,38,13Z" style="fill:#f2aab5"/><path d="M26,13a2.986,2.986,0,0,1-2.817-2,3,3,0,1,0,5.634,0A2.986,2.986,0,0,1,26,13Z" style="fill:#f2aab5"/><path d="M26,31a6,6,0,0,1,12,0,5.989,5.989,0,0,1,5.724,3.5A4.228,4.228,0,0,0,44,33c0-2.76-2.69-5-6-5a6,6,0,0,0-12,0c-3.31,0-6,2.24-6,5a4.228,4.228,0,0,0,.276,1.5A5.989,5.989,0,0,1,26,31Z" style="fill:#f9bbc6"/><path d="M17,15a3.8,3.8,0,0,1,2.03.61c-.02-.2-.03-.41-.03-.61a6.994,6.994,0,0,1,13-3.59A6.994,6.994,0,0,1,45,15c0,.2-.01.41-.03.61A3.8,3.8,0,0,1,47,15c2.385,0,4.379,2.34,4.877,5.473A9.565,9.565,0,0,0,52,19c0-3.87-2.24-7-5-7a3.8,3.8,0,0,0-2.03.61c.02-.2.03-.41.03-.61A6.994,6.994,0,0,0,32,8.41,6.994,6.994,0,0,0,19,12c0,.2.01.41.03.61A3.8,3.8,0,0,0,17,12c-2.76,0-5,3.13-5,7a9.565,9.565,0,0,0,.123,1.473C12.621,17.34,14.615,15,17,15Z" style="fill:#ffe2c2"/><path d="M38,15a2.986,2.986,0,0,1-2.817-2,3,3,0,1,0,5.634,0A2.986,2.986,0,0,1,38,15Z" style="fill:#e9b789"/><path d="M26,15a2.986,2.986,0,0,1-2.817-2,3,3,0,1,0,5.634,0A2.986,2.986,0,0,1,26,15Z" style="fill:#e9b789"/><path d="M47,20c-.866,0-1.6-.836-1.877-2A4.285,4.285,0,0,0,45,19c0,1.66.9,3,2,3s2-1.34,2-3a4.285,4.285,0,0,0-.123-1C48.6,19.164,47.866,20,47,20Z" style="fill:#f2aab5"/><path d="M17,20c-.866,0-1.6-.836-1.877-2A4.285,4.285,0,0,0,15,19c0,1.66.9,3,2,3s2-1.34,2-3a4.285,4.285,0,0,0-.123-1C18.6,19.164,17.866,20,17,20Z" style="fill:#f2aab5"/><path d="M17,22c-.866,0-1.6-.836-1.877-2A4.285,4.285,0,0,0,15,21c0,1.66.9,3,2,3s2-1.34,2-3a4.285,4.285,0,0,0-.123-1C18.6,21.164,17.866,22,17,22Z" style="fill:#e9b789"/><path d="M38,38c-2.91,0-5.33-1.72-5.88-4.01-.04,0-.08.01-.12.01s-.08-.01-.12-.01C31.33,36.28,28.91,38,26,38a5.989,5.989,0,0,1-5.724-3.5A4.228,4.228,0,0,0,20,36c0,2.76,2.69,5,6,5,2.91,0,5.33-1.72,5.88-4.01.04,0,.08.01.12.01s.08-.01.12-.01C32.67,39.28,35.09,41,38,41c3.31,0,6-2.24,6-5a4.228,4.228,0,0,0-.276-1.5A5.989,5.989,0,0,1,38,38Z" style="fill:#e9b789"/><ellipse cx="34.684" cy="27.695" rx="1.642" ry="2.286" transform="translate(-9.423 32.652) rotate(-45.02)" style="fill:#f6fafd"/><ellipse cx="24.682" cy="33.708" rx="0.825" ry="1.148" transform="translate(-16.608 27.34) rotate(-45.02)" style="fill:#f6fafd"/><polygon points="45.35 53.86 36.22 63 32 58.78 41.14 49.65 44 52.51 45.35 53.86" style="fill:#25b1e8"/><path d="M53,38.61V46l.11.11-3,3L50,49V41l-.11-.11.38-.38A10.317,10.317,0,0,1,53,38.61Z" style="fill:#cdd2e1"/><path d="M47,44v8l.11.11-1.76,1.75L44,52.51V47l-.1-.1c.92-.94,1.97-1.99,2.99-3.01Z" style="fill:#cdd2e1"/><path d="M44,47v5.51l-2.86-2.86,1.88-1.88c.27-.28.57-.57.88-.87Z" style="fill:#e9edf5"/><path d="M50,41v8l.11.11-3,3L47,52V44l-.11-.11,3-3Z" style="fill:#e9edf5"/><path d="M54.49,44.73l-1.38,1.38L53,46V38.61A18.123,18.123,0,0,1,58,37S57.3,41.92,54.49,44.73Z" style="fill:#e9edf5"/><path d="M44.55,58.661c-.128-1.272-.276-2.456-.436-3.563L36.22,63h3.994l4.136-4.14Z" style="fill:#d99c64"/><polygon points="34.002 60.782 31.781 63 36.22 63 34.002 60.782" style="fill:#d99c64"/><polygon points="43.245 51.755 34.11 60.89 36.22 63 45.35 53.86 44 52.51 43.245 51.755" style="fill:#2b8ffc"/><polygon points="53 42 50 45 50 49 50.11 49.11 53.11 46.11 53 46 53 42" style="fill:#9da3b5"/><polygon points="47 48 44 51 44 52.51 45.35 53.86 47.11 52.11 47 52 47 48" style="fill:#9da3b5"/><polygon points="44 52.51 44 51 43.245 51.755 44 52.51" style="fill:#cdd2e1"/><polygon points="50 45 47 48 47 52 47.11 52.11 50.11 49.11 50 49 50 45" style="fill:#cdd2e1"/><path d="M53,46l.11.11,1.38-1.38C57.3,41.92,58,37,58,37l-5,5Z" style="fill:#cdd2e1"/><path d="M26,39a7.333,7.333,0,0,0,6-2.91A7.333,7.333,0,0,0,38,39c3.859,0,7-2.691,7-6,0-3.036-2.645-5.554-6.063-5.946a7,7,0,0,0-13.874,0C21.645,27.446,19,29.964,19,33,19,36.309,22.141,39,26,39Zm0-10a1,1,0,0,0,1-1,5,5,0,0,1,10,0,1,1,0,0,0,1,1c2.757,0,5,1.794,5,4s-2.243,4-5,4c-2.393,0-4.456-1.364-4.907-3.243a1,1,0,0,0-.973-.767c-.041,0-.081,0-.124.006s-.091-.006-.116-.006a1,1,0,0,0-.973.767C30.456,35.636,28.393,37,26,37c-2.757,0-5-1.794-5-4S23.243,29,26,29Z"/><path d="M30,12a4,4,0,1,0-4,4A4,4,0,0,0,30,12Zm-6,0a2,2,0,1,1,2,2A2,2,0,0,1,24,12Z"/><path d="M17,15c-1.683,0-3,1.757-3,4s1.317,4,3,4,3-1.757,3-4S18.683,15,17,15Zm0,6c-.4,0-1-.8-1-2s.6-2,1-2,1,.8,1,2S17.4,21,17,21Z"/><path d="M47,23c1.683,0,3-1.757,3-4s-1.317-4-3-4-3,1.757-3,4S45.317,23,47,23Zm0-6c.4,0,1,.8,1,2s-.6,2-1,2-1-.8-1-2S46.6,17,47,17Z"/><path d="M42,12a4,4,0,1,0-4,4A4,4,0,0,0,42,12Zm-6,0a2,2,0,1,1,2,2A2,2,0,0,1,36,12Z"/><path d="M20.5,44.654c-.089.565-.179,1.119-.276,1.68-.116.643-.238,1.295-.363,1.966-.5,2.687-1.073,5.732-1.445,9.6l1.99.192c.364-3.783.926-6.781,1.421-9.427.126-.677.249-1.335.366-1.986.1-.575.193-1.141.283-1.714.156-.975.273-1.847.357-2.666a1,1,0,0,0-.475-.956A14.589,14.589,0,0,1,15,29a13.363,13.363,0,0,1,.522-3.618,1,1,0,0,0-.345-1.059A6.813,6.813,0,0,1,13,19a7.887,7.887,0,0,1,.882-3.729c1.09-2.033,3.018-2.821,4.615-1.815a1,1,0,0,0,1.528-.947C20.008,12.342,20,12.167,20,12A6,6,0,0,1,31.142,8.923a1.04,1.04,0,0,0,1.716,0A6,6,0,0,1,44,12c0,.167-.008.342-.025.509a1,1,0,0,0,1.528.947c1.6-1.008,3.524-.22,4.616,1.817A7.885,7.885,0,0,1,51,19a6.813,6.813,0,0,1-2.177,5.323,1,1,0,0,0-.345,1.059A13.363,13.363,0,0,1,49,29a14.589,14.589,0,0,1-7.36,12.346,1,1,0,0,0-.475.956c.084.819.2,1.691.357,2.666l1.975-.317c-.111-.7-.2-1.337-.274-1.939A16.488,16.488,0,0,0,51,29a15.046,15.046,0,0,0-.437-3.548A9.15,9.15,0,0,0,53,19a9.93,9.93,0,0,0-1.008-4.429c-.112-5.037-2.2-7.188-2.285-7.278a.989.989,0,0,0-.867-.28,1,1,0,0,0-.735.54L46.347,11.07c-.132.018-.264.022-.4.053a7.972,7.972,0,0,0-4.072-6.094A7.528,7.528,0,0,0,38.555.168a1,1,0,0,0-1.11,0A7.527,7.527,0,0,0,34.12,5.023,7.89,7.89,0,0,0,32,6.718a7.9,7.9,0,0,0-2.122-1.7A7.53,7.53,0,0,0,26.555.168a1,1,0,0,0-1.11,0,7.525,7.525,0,0,0-3.327,4.863,7.977,7.977,0,0,0-4.069,6.092c-.132-.031-.264-.035-.4-.054L15.9,7.553a1,1,0,0,0-.735-.54.985.985,0,0,0-.867.28c-.09.09-2.17,2.239-2.285,7.278A9.933,9.933,0,0,0,11,19a9.15,9.15,0,0,0,2.437,6.452A15.046,15.046,0,0,0,13,29a16.488,16.488,0,0,0,7.777,13.712C20.705,43.315,20.614,43.956,20.5,44.654Zm28.59-34.6a9.791,9.791,0,0,1,.585,1.816,5.285,5.285,0,0,0-1.19-.607ZM38,2.246a5.623,5.623,0,0,1,1.485,1.907,8.022,8.022,0,0,0-2.971,0A5.634,5.634,0,0,1,38,2.246Zm-12,0a5.623,5.623,0,0,1,1.485,1.907,8.027,8.027,0,0,0-2.972,0A5.644,5.644,0,0,1,26,2.246ZM15.512,11.26a5.289,5.289,0,0,0-1.188.606,9.9,9.9,0,0,1,.584-1.814Z"/><path d="M46.056,54.568l9.141-9.13c3.011-3.012,3.763-8.083,3.793-8.3a1,1,0,0,0-1.131-1.131,18.96,18.96,0,0,0-5.3,1.7c-.184.091-.356.19-.531.286H52v.014a10.878,10.878,0,0,0-2.44,1.792l-3.52,3.519c-.978.978-1.975,1.977-2.834,2.856-.319.308-.627.606-.894.881l-1.879,1.881-9.14,9.13a1,1,0,0,0,0,1.414L33.806,62H20.125q.05-1,.117-1.928l-1.994-.144c-.069.96-.127,1.968-.167,3.034a1,1,0,0,0,1,1.038H44.92a1,1,0,0,0,1-1.038c-.067-1.747-.178-3.4-.337-5.058l-1.99.192c.123,1.287.217,2.572.283,3.9H38.632ZM45,47.21c.327-.332.654-.665,1-1.013v5.6l-.65.65L45,52.1ZM49,48.8l-1,1V44.193l1-1Zm5-5.022v-4.53a17.313,17.313,0,0,1,2.7-.95A13.384,13.384,0,0,1,54,43.779Zm-2,2.026-1,1V41.2a7.945,7.945,0,0,1,1-.831Zm-9,3.4V50.1l-.446-.447Zm-1.86,1.861L43,52.925V53h.075l.861.86L36.22,61.585l-2.8-2.8Z"/></g></svg>