<svg xmlns="http://www.w3.org/2000/svg" viewBox="0 0 64 64"><title>26-love</title><g id="_26-love" data-name="26-love"><path d="M21,14a7.82,7.82,0,0,1-1.98,4.98C17,17.27,17,14,17,14h3a5.025,5.025,0,0,0,.98-.09Z" style="fill:#4e8563"/><path d="M42,21h8l.07.06c-.21.25-.44.49-.67.72L38.03,33.03,38,33H33c-4,0-4-4-4-4-5,0-5-9-5-9H22a4.4,4.4,0,0,1-2.98-1.02A7.82,7.82,0,0,0,21,14l-.02-.09c3.99-.71,4.36-5.78,8.84-5.91A6.192,6.192,0,0,1,36,14.19C36.08,19.05,39.04,21,42,21Z" style="fill:#f2cfa9"/><path d="M19.02,18.98A4.4,4.4,0,0,0,22,20h2s0,9,5,9c0,0,0,4,4,4h5l.03.03L32,39,14.6,21.78a12.084,12.084,0,0,1,0-17.21,12.386,12.386,0,0,1,17.4,0,12.386,12.386,0,0,1,17.4,0,12.073,12.073,0,0,1,.67,16.49L50,21H42c-2.96,0-5.92-1.95-6-6.81A6.192,6.192,0,0,0,29.82,8c-4.48.13-4.85,5.2-8.84,5.91A5.025,5.025,0,0,1,20,14H17S17,17.27,19.02,18.98Z" style="fill:#fecfd5"/><polygon points="14 59 14 63 4 63 4 43 14 43 14 48 14 59" style="fill:#8cb8f5"/><path d="M40,53h5l12-9,3,3L46,61H19a1.959,1.959,0,0,1-2-2H14V48h3s0-4,4-4h9a2.938,2.938,0,0,1,3,3h7a3,3,0,0,1,0,6Z" style="fill:#ffe2c2"/><path d="M21,14a7.82,7.82,0,0,1-1.98,4.98C17,17.27,17,14,17,14h3a5.025,5.025,0,0,0,.98-.09Z" style="fill:#9a6948"/><path d="M21,53H40a3,3,0,0,0,0-6H33a2.938,2.938,0,0,0-3-3H21c-4,0-4,4-4,4v1A4,4,0,0,0,21,53Z" style="fill:#ffe2c2"/><path d="M30.626,8.038A5.654,5.654,0,0,0,29.82,8c-4.48.13-4.85,5.2-8.84,5.91L21,14a8.253,8.253,0,0,1-.31,1.967,5.971,5.971,0,0,0,.679-.057c3.241-.525,4.309-3.433,6.636-4.966A2.987,2.987,0,0,1,30.626,8.038Z" style="fill:#ffe2c2"/><path d="M36,16l.13-.32A9.839,9.839,0,0,1,36,14.19a6.307,6.307,0,0,0-4.582-6A3.488,3.488,0,0,0,29,11.5a7.344,7.344,0,0,0,.493,2.651,23.14,23.14,0,0,1,1.3,4.969c.025.157.049.32.069.485a2.744,2.744,0,0,0,1.482,2.145c.014.007.027.015.041.021a2.535,2.535,0,0,0,.3.108c.061.019.122.039.185.053a2.2,2.2,0,0,0,.23.037c.078.01.156.019.236.022a2.725,2.725,0,0,0,.327-.014c.075-.007.153-.01.226-.023a2.719,2.719,0,0,0,.313-.084c.065-.02.133-.035.2-.061a2.44,2.44,0,0,0,.31-.158c.049-.028.1-.049.15-.08a2.692,2.692,0,0,0,.4-.321A2.6,2.6,0,0,0,36,19.42V16" style="fill:#af7a58"/><path d="M36,14.19a6.307,6.307,0,0,0-4.582-6,3.524,3.524,0,0,0-1.433.9A6,6,0,0,1,35,15v5a1.993,1.993,0,0,1-1.8,1.98c.041,0,.082.01.125.011a2.725,2.725,0,0,0,.327-.014c.075-.007.153-.01.226-.023a2.719,2.719,0,0,0,.313-.084c.065-.02.133-.035.2-.061a2.44,2.44,0,0,0,.31-.158c.049-.028.1-.049.15-.08a2.692,2.692,0,0,0,.4-.321A2.6,2.6,0,0,0,36,19.42V16l.13-.32A9.839,9.839,0,0,1,36,14.19Z" style="fill:#db996e"/><path d="M50,21H47.156L39.03,29.03h0a3.567,3.567,0,0,1-2.445.97H33c-4,0-4-4-4-4-3.009,0-4.2-3.254-4.679-5.85-.1.08-.207.154-.311.23C24.077,22.09,24.618,29,29,29c0,0,0,4,4,4h5l.03.03L49.4,21.78c.23-.23.46-.47.67-.72Z" style="fill:#e9b789"/><path d="M34.7,21.651a2.44,2.44,0,0,1-.31.158c-.063.026-.131.041-.2.061a2.719,2.719,0,0,1-.313.084c-.073.013-.151.016-.226.023a2.725,2.725,0,0,1-.327.014c-.08,0-.158-.012-.236-.022a2.2,2.2,0,0,1-.23-.037c-.063-.014-.124-.034-.185-.053a2.535,2.535,0,0,1-.3-.108c-.014-.006-.027-.014-.041-.021a2.744,2.744,0,0,1-1.482-2.145c-.02-.165-.044-.328-.069-.485a23.14,23.14,0,0,0-1.3-4.969A7.344,7.344,0,0,1,29,11.5a3.353,3.353,0,0,1,.039-.473A3.45,3.45,0,0,0,28,13.5a7.344,7.344,0,0,0,.493,2.651,23.14,23.14,0,0,1,1.3,4.969c.025.157.049.32.069.485a2.744,2.744,0,0,0,1.482,2.145c.014.007.027.015.041.021a2.535,2.535,0,0,0,.295.108c.061.019.122.039.185.053a2.2,2.2,0,0,0,.23.037c.078.01.156.019.236.022a2.725,2.725,0,0,0,.327-.014c.075-.007.153-.01.226-.023a2.719,2.719,0,0,0,.313-.084c.065-.02.133-.035.2-.061a2.44,2.44,0,0,0,.31-.158c.049-.028.1-.049.15-.08a2.692,2.692,0,0,0,.4-.321,2.6,2.6,0,0,0,.747-1.8c-.05.038-.095.083-.147.118S34.749,21.623,34.7,21.651Z" style="fill:#e9b789"/><path d="M20.69,15.967A8.253,8.253,0,0,0,21,14l-.02-.09A5.025,5.025,0,0,1,20,14H17a8.844,8.844,0,0,0,.293,2h3C20.435,16,20.555,15.975,20.69,15.967Z" style="fill:#af7a58"/><ellipse cx="43.684" cy="6.695" rx="1.642" ry="2.286" transform="translate(8.07 32.862) rotate(-45.02)" style="fill:#f6fafd"/><ellipse cx="46.682" cy="10.708" rx="0.825" ry="1.148" transform="translate(6.11 36.159) rotate(-45.02)" style="fill:#f6fafd"/><path d="M8,43V55a4,4,0,0,0,4,4h2v4H4V43Z" style="fill:#71a2e6"/><path d="M43,50a3,3,0,0,0-3-3H33a2.938,2.938,0,0,0-3-3H21a3.691,3.691,0,0,0-3.888,3.124A3.743,3.743,0,0,1,20,46h9a2.938,2.938,0,0,1,3,3h7a3,3,0,0,1,3,3c0,.082-.018.159-.024.239.046-.041.1-.075.144-.119A2.993,2.993,0,0,0,43,50Z" style="fill:#ffefde"/><rect x="3" y="48" width="2" height="2"/><path d="M60.707,46.293l-3-3A1,1,0,0,0,56.4,43.2l-8,6,1.2,1.6,7.306-5.48L58.586,47l-13,13H19.012A.918.918,0,0,1,18,59a1,1,0,0,0-1-1H15V49h2a1,1,0,0,0,1-.994A2.854,2.854,0,0,1,21,45h9a1.883,1.883,0,0,1,2,2,1,1,0,0,0,1,1h7a2,2,0,0,1,0,4H33v2H45a1,1,0,0,0,.6-.2l2-1.5-1.2-1.6L44.667,52H43.445A3.959,3.959,0,0,0,44,50a4,4,0,0,0-4-4H33.9A3.916,3.916,0,0,0,30,43H21a4.689,4.689,0,0,0-4.9,4H15V43a1,1,0,0,0-1-1H4a1,1,0,0,0-1,1v3H5V44h8V62H5V52H3V63a1,1,0,0,0,1,1H14a1,1,0,0,0,1-1V60h1.143A2.963,2.963,0,0,0,19,62H46a1,1,0,0,0,.707-.293l14-14A1,1,0,0,0,60.707,46.293Z"/><path d="M31.3,39.711a1,1,0,0,0,1.408,0l17.4-17.225c.248-.249.5-.508.724-.779A13.13,13.13,0,0,0,50.1,3.859,13.41,13.41,0,0,0,32,3.21a13.408,13.408,0,0,0-18.1.649,13.086,13.086,0,0,0,0,18.632ZM15.3,5.281a11.4,11.4,0,0,1,15.992,0,1,1,0,0,0,1.408,0,11.4,11.4,0,0,1,15.993,0,11.121,11.121,0,0,1,.615,15.125l-.008.01c-.192.229-.4.447-.607.653L37.651,32H33a2.852,2.852,0,0,1-3-3,1,1,0,0,0-1-1c-3.88,0-4-7.921-4-8a1,1,0,0,0-1-1H22a3.842,3.842,0,0,1-1.482-.277,9.043,9.043,0,0,0,1.435-4.029,8.566,8.566,0,0,0,3.815-3.057C26.922,10.252,27.919,9.056,29.849,9a4.746,4.746,0,0,1,3.479,1.371A5.448,5.448,0,0,1,35,14.207c.005.275.025.535.045.793H35v4.42A1.561,1.561,0,0,1,33.42,21,1.576,1.576,0,0,1,31.863,19.6a23.051,23.051,0,0,0-1.969-7.043l-1.788.9a21.221,21.221,0,0,1,1.77,6.376,3.561,3.561,0,0,0,7.081.038A6.8,6.8,0,0,0,42,22h4V20H42c-1.15,0-4.911-.42-5-5.824a7.463,7.463,0,0,0-2.29-5.25A6.806,6.806,0,0,0,29.791,7c-2.832.082-4.281,1.822-5.56,3.356-1.028,1.235-1.916,2.3-3.446,2.574A4.049,4.049,0,0,1,20,13H17a1,1,0,0,0-1,1c0,.152.027,3.756,2.369,5.739A5.4,5.4,0,0,0,22,21h1.04c.162,2.376.975,8.164,5.046,8.918A4.7,4.7,0,0,0,33,34h2.63L32,37.593,15.3,21.069a11.082,11.082,0,0,1,0-15.788Zm3.673,12.141A6.391,6.391,0,0,1,18.1,15h1.79A6.859,6.859,0,0,1,18.977,17.422Z"/></g></svg>