<svg xmlns="http://www.w3.org/2000/svg" viewBox="0 0 64 64"><title>24-dog toy</title><g id="_24-dog_toy" data-name="24-dog toy"><path d="M29.719,38.035c7.45.329,13.959,1.978,18.179,4.4a26,26,0,0,1-41.8,0c.49-.28,1.03-.55,1.58-.81.08-.04.15-.08.23-.12.53-.24,1.08-.459,1.65-.679.12-.05.24-.1.37-.14.57-.21,1.15-.41,1.76-.6.14-.04.29-.09.43-.13.62-.18,1.26-.359,1.919-.519.13-.03.27-.06.41-.09.69-.16,1.4-.32,2.13-.45.08-.02.17-.03.26-.05.77-.13,1.56-.26,2.37-.37a.127.127,0,0,0,.06-.01q1.245-.15,2.55-.269a1.942,1.942,0,0,0,.24-.02c.84-.07,1.7-.12,2.57-.15.11,0,.23-.01.35-.01.66-.02,1.34-.04,2.02-.04C27.919,37.975,28.829,37.995,29.719,38.035Z" style="fill:#a8e9ff"/><path d="M27,1A25.942,25.942,0,0,1,47.9,11.533c-4.32,2.478-11.039,4.147-18.7,4.417-.72.03-1.46.04-2.2.04-8.57,0-16.169-1.749-20.9-4.457A25.942,25.942,0,0,1,27,1Z" style="fill:#a8e9ff"/><path d="M47.9,42.432c-4.22-2.419-10.729-4.068-18.179-4.4-.89-.04-1.8-.06-2.72-.06-.68,0-1.36.02-2.02.04H24.8c-.06,0-.12.01-.17.01-.87.03-1.73.08-2.57.15a1.942,1.942,0,0,1-.24.02q-1.3.119-2.55.269a.127.127,0,0,1-.06.01c-.81.11-1.6.24-2.37.37-.09.02-.18.03-.26.05-.73.13-1.44.29-2.13.45-.14.03-.28.06-.41.09-.659.16-1.3.339-1.919.519-.14.04-.29.09-.43.13-.61.19-1.19.39-1.76.6-.13.04-.25.09-.37.14-.57.22-1.12.439-1.65.679-.08.04-.15.08-.23.12-.55.26-1.09.53-1.58.81a25.951,25.951,0,0,1,0-30.9C10.83,14.241,18.429,15.99,27,15.99c.74,0,1.48-.01,2.2-.04,7.66-.27,14.379-1.939,18.7-4.417a25.951,25.951,0,0,1,0,30.9Z" style="fill:#f2aab5"/><path d="M37,43.011a25.886,25.886,0,0,1-15.032-4.789,1.452,1.452,0,0,1-.148.012q-1.3.12-2.55.27a.127.127,0,0,1-.06.01c-.81.11-1.6.24-2.37.37-.09.02-.18.03-.26.05-.73.13-1.44.29-2.13.45-.14.03-.28.06-.41.09-.659.16-1.3.339-1.919.519-.14.04-.29.09-.43.13-.61.19-1.19.39-1.76.6-.13.04-.25.09-.37.14-.57.22-1.12.439-1.65.679-.08.04-.15.08-.23.12-.55.26-1.09.53-1.58.81a26,26,0,0,0,41.8,0c-.623-.358-1.311-.692-2.03-1.014A25.958,25.958,0,0,1,37,43.011Z" style="fill:#55c7e2"/><path d="M14.3,4.355a26.109,26.109,0,0,0-8.2,7.218,27.218,27.218,0,0,0,5.11,2.2A25.793,25.793,0,0,1,14.3,4.355Z" style="fill:#55c7e2"/><path d="M7.91,41.542c.53-.24,1.08-.459,1.65-.679.12-.05.24-.1.37-.14.57-.21,1.15-.41,1.76-.6.14-.04.29-.09.43-.13.62-.18,1.26-.359,1.919-.519.13-.03.27-.06.41-.09.69-.16,1.4-.32,2.13-.45.08-.02.17-.03.26-.05.77-.13,1.56-.26,2.37-.37a.127.127,0,0,0,.06-.01q1.245-.15,2.55-.27a1.452,1.452,0,0,0,.148-.012A25.938,25.938,0,0,1,11,17.029a26.35,26.35,0,0,1,.21-3.259,27.218,27.218,0,0,1-5.11-2.2,25.951,25.951,0,0,0,0,30.9c.49-.28,1.03-.55,1.58-.81C7.76,41.622,7.83,41.582,7.91,41.542Z" style="fill:#da9ea8"/><path d="M47.9,42.472a25.931,25.931,0,0,0,1.767-2.754,25.792,25.792,0,0,1-3.8,1.74C46.587,41.78,47.275,42.114,47.9,42.472Z" style="fill:#da9ea8"/><path d="M61.508,47.178a5.068,5.068,0,1,1-7.17,7.165,5.069,5.069,0,1,1-7.17,0,5.127,5.127,0,0,1,1.74-1.129L31.889,36.206l-5.1-5.1a5.057,5.057,0,0,1-8.3,1.739,5.068,5.068,0,0,1,7.17-7.165,5.095,5.095,0,1,1,5.43,1.129L53.208,48.917a5.057,5.057,0,0,1,8.3-1.739Z" style="fill:#eef2fa"/><path d="M61.508,54.343a5.068,5.068,0,1,0-7.17-7.165,5.12,5.12,0,0,0-1.13,1.739l-22.119-22.1a5.063,5.063,0,1,0-5.43-1.129L54.338,54.344h0A5.072,5.072,0,0,0,61.508,54.343Z" style="fill:#f7faff"/><path d="M18.489,25.683a5.068,5.068,0,0,0,7.17,7.165,5.1,5.1,0,0,0,1.13-1.739l5.1,5.1L48.908,53.214a5.127,5.127,0,0,0-1.74,1.129,5.069,5.069,0,1,0,7.17,0L25.659,25.683A5.072,5.072,0,0,0,18.489,25.683Z" style="fill:#e1f1fa"/><path d="M30.889,39.2l3.686,3.684c.8.074,1.6.123,2.424.123.548,0,1.088-.038,1.628-.071L34.089,38.4c-1.416-.169-2.867-.3-4.37-.369Z" style="fill:#55c7e2"/><path d="M37,43.011c-.819,0-1.625-.049-2.424-.123l6.153,6.149a26.192,26.192,0,0,0,2.349-1.65l-4.45-4.447C38.087,42.973,37.547,43.011,37,43.011Z" style="fill:#1da7ea"/><path d="M31.889,36.206l-5.1-5.1a5.057,5.057,0,0,1-8.3,1.739A5.039,5.039,0,0,1,17,29.279a5.044,5.044,0,0,0-.974,3.078,4.978,4.978,0,0,0,1.465,3.489,5.125,5.125,0,0,0,7.17,0,5.111,5.111,0,0,0,1.13-1.739l3.93,3.928c1.5.066,2.954.2,4.37.369Z" style="fill:#b88d97"/><ellipse cx="39.683" cy="9.729" rx="1.641" ry="2.285" transform="translate(4.772 30.957) rotate(-45.078)" style="fill:#f6fafd"/><ellipse cx="36.68" cy="11.741" rx="0.825" ry="1.148" transform="translate(2.465 29.422) rotate(-45.078)" style="fill:#f6fafd"/><ellipse cx="46.68" cy="17.737" rx="0.825" ry="1.148" transform="translate(1.158 38.264) rotate(-45.078)" style="fill:#f6fafd"/><ellipse cx="27.426" cy="8.243" rx="0.412" ry="0.574" transform="translate(2.223 21.842) rotate(-45.078)" style="fill:#f6fafd"/><rect x="35" y="30.285" width="2" height="2.83" transform="translate(-11.871 34.74) rotate(-45)"/><path d="M62.217,46.463a6.079,6.079,0,0,0-8.584,0,5.865,5.865,0,0,0-.664.792L39.007,33.292l-1.414,1.414L52.5,49.617a1,1,0,0,0,1.637-.338,4.055,4.055,0,0,1,6.665-1.4,4.07,4.07,0,0,1-5.758,5.754,1,1,0,1,0-1.414,1.414,4.07,4.07,0,1,1-5.756,0,4.1,4.1,0,0,1,1.4-.907,1,1,0,0,0,.338-1.637l-3.212-3.211-1.414,1.414,2.264,2.264a5.858,5.858,0,0,0-.792.663,6.077,6.077,0,0,0,0,8.582A6.012,6.012,0,0,0,50.755,64h0a6.082,6.082,0,0,0,6.069-6.077A6.125,6.125,0,0,0,56.7,56.7a6.125,6.125,0,0,0,1.222.122,6.065,6.065,0,0,0,4.292-10.362Z"/><path d="M17.785,24.951a6.07,6.07,0,1,0,8.582,8.586,5.94,5.94,0,0,0,.664-.792L43.292,49.006l1.414-1.414L27.5,30.383a1,1,0,0,0-1.637.338,4.055,4.055,0,0,1-6.665,1.4,4.07,4.07,0,0,1,5.758-5.754,1,1,0,1,0,1.414-1.414,4.07,4.07,0,0,1,0-5.756,4.153,4.153,0,0,1,5.756,0,4.055,4.055,0,0,1-1.4,6.663,1,1,0,0,0-.338,1.637L32.6,29.709,34.009,28.3l-1.264-1.264a5.94,5.94,0,0,0,.792-.664A6.068,6.068,0,0,0,32.2,16.776a42.225,42.225,0,0,0,15.4-3.934,25.057,25.057,0,0,1,2.861,22.812l1.877.692a27.05,27.05,0,0,0-3.639-25.4l0,0a26.992,26.992,0,0,0-43.4,0l0,0a26.986,26.986,0,0,0,0,32.114h0a27,27,0,0,0,35.2,7.327l-1-1.731A24.989,24.989,0,0,1,7.624,42.782C12.389,40.4,19.512,39,27,39c1.088,0,2.052.022,2.948.069l.1-2C29.121,37.023,28.123,37,27,37c-8.073,0-15.512,1.509-20.6,4.158a25,25,0,0,1,0-28.316c4.87,2.533,11.893,4.008,19.557,4.134a6.128,6.128,0,0,0-1,.807,6.032,6.032,0,0,0-1.778,4.292A6.125,6.125,0,0,0,23.3,23.3a6.125,6.125,0,0,0-1.222-.122A6.03,6.03,0,0,0,17.785,24.951ZM27,2a24.759,24.759,0,0,1,19.366,9.205c-4.3,2.154-10.462,3.518-17.208,3.756C28.452,14.99,27.727,15,27,15c-7.488,0-14.611-1.4-19.376-3.782A24.761,24.761,0,0,1,27,2Z"/><path d="M48.655,39.5,50.384,40.5c.391-.673.759-1.373,1.089-2.079l-1.811-.848C49.356,38.229,49.018,38.875,48.655,39.5Z"/></g></svg>