<svg xmlns="http://www.w3.org/2000/svg" viewBox="0 0 64 64"><title>22-dog perfume</title><g id="_22-dog_perfume" data-name="22-dog perfume"><path d="M50,41c1.96,0,2,1.93,3.89,1.99a13.112,13.112,0,0,1-4.19,8.03A15.21,15.21,0,0,1,39.33,55H24.67C16.57,55,10,48.91,10,41.39c0-.13,0-.26.01-.39C12,41.01,12,43,14,43s2-2,4-2,2,2,4,2,2-2,4-2,2,2,4,2,2-2,4-2,2,2,4,2,2-2,4-2,2,2,4,2S48,41,50,41Z" style="fill:#fecfd5"/><path d="M35,6h3.38a5.453,5.453,0,0,0,0,4H35Z" style="fill:#95e8c8"/><rect x="30" y="11" width="4" height="3" style="fill:#95e8c8"/><polygon points="37 14 37 18 27 18 27 14 30 14 34 14 37 14" style="fill:#7baef5"/><path d="M54,41.39a10.576,10.576,0,0,1-.11,1.6C52,42.93,51.96,41,50,41c-2,0-2,2-4,2s-2-2-4-2-2,2-4,2-2-2-4-2-2,2-4,2-2-2-4-2-2,2-4,2-2-2-4-2-2,2-4,2-2-1.99-3.99-2a9,9,0,0,1,4.29-7.72c2.65-1.71,6.32-2.48,10.37-2.48C26.3,30.8,29,25.02,29,22h6c0,3.02,2.7,8.8,4.33,8.8C47.43,30.8,54,33.87,54,41.39Z" style="fill:#f7faff"/><path d="M39.33,30.8C37.7,30.8,35,25.02,35,22H29c0,3.02-2.7,8.8-4.33,8.8-4.05,0-7.72.77-10.37,2.48A9,9,0,0,0,10.01,41a2.228,2.228,0,0,1,1.5.554c0-.055-.009-.109-.009-.164,0-.093,0-.185.009-.343a7.47,7.47,0,0,1,3.6-6.506C17.386,33.074,20.69,32.3,24.67,32.3c2.716,0,5.044-5.449,5.667-8.8h3.326c.623,3.351,2.951,8.8,5.667,8.8,4.919,0,13.17,1.18,13.17,9.09a9.579,9.579,0,0,1-.056,1.02,2.22,2.22,0,0,0,1.446.58,10.576,10.576,0,0,0,.11-1.6C54,33.87,47.43,30.8,39.33,30.8Z" style="fill:#dee1e6"/><path d="M10.01,41c-.01.13-.01.26-.01.39C10,48.91,16.57,55,24.67,55H39.33A15.21,15.21,0,0,0,49.7,51.02a13.112,13.112,0,0,0,4.19-8.03,10.576,10.576,0,0,0,.11-1.6c0-7.52-6.57-10.59-14.67-10.59C37.7,30.8,35,25.02,35,22H29c0,3.02-2.7,8.8-4.33,8.8-4.05,0-7.72.77-10.37,2.48A9,9,0,0,0,10.01,41ZM59,41A17.993,17.993,0,0,1,41,59H23A18,18,0,0,1,5,41c0-4.97,2.02-8.47,5.27-10.73S18.03,27,23,27c2,0,2-5,2-9H39c0,4,0,9,2,9C50.94,27,59,31.06,59,41Z" style="fill:#7dd5f5"/><path d="M38.38,6c1.1-2.89,4.54-5,8.62-5,4.97,0,9,3.13,9,7s-4.03,7-9,7c-4.08,0-7.52-2.11-8.62-5a5.453,5.453,0,0,1,0-4Z" style="fill:#fecfd5"/><rect x="23" y="59" width="18" height="4" style="fill:#7baef5"/><polygon points="35 10 35 11 34 11 30 11 29 11 29 5 35 5 35 6 35 10" style="fill:#f2aab5"/><path d="M18,44.5c2,0,2,2,4,2s2-2,4-2,2,2,4,2,2-2,4-2,2,2,4,2,2-2,4-2,2,2,4,2,2-2,4-2a2.4,2.4,0,0,1,1.788.786,11.069,11.069,0,0,0,.612-2.477c.021-.132.031-.266.044-.4C51.749,41.822,51.283,41,50,41c-2,0-2,2-4,2s-2-2-4-2-2,2-4,2-2-2-4-2-2,2-4,2-2-2-4-2-2,2-4,2-2-2-4-2-2,2-4,2c-1.315,0-1.771-.853-2.491-1.446a11.2,11.2,0,0,0,.988,4.415A2.251,2.251,0,0,0,14,46.5C16,46.5,16,44.5,18,44.5Z" style="fill:#fee7ea"/><path d="M52.4,42.809a11.666,11.666,0,0,1-3.72,7.111,13.66,13.66,0,0,1-9.35,3.58H24.67c-7.2,0-13.064-5.344-13.161-11.946A2.228,2.228,0,0,0,10.01,41c-.01.13-.01.26-.01.39C10,48.91,16.57,55,24.67,55H39.33A15.21,15.21,0,0,0,49.7,51.02a13.112,13.112,0,0,0,4.19-8.03,2.22,2.22,0,0,1-1.446-.58C52.431,42.543,52.421,42.677,52.4,42.809Z" style="fill:#f2aab5"/><path d="M47,11c-4.08,0-7.52-2.11-8.62-5a5.453,5.453,0,0,0,0,4c1.1,2.89,4.54,5,8.62,5,4.97,0,9-3.13,9-7a5.585,5.585,0,0,0-.377-2C54.516,8.893,51.077,11,47,11Z" style="fill:#f2aab5"/><rect x="30" y="6" width="4" height="4" style="fill:#fecfd5"/><path d="M29,14v1a2,2,0,0,0,2,2h2a2,2,0,0,0,2-2V14h2v4H27V14Z" style="fill:#6997d6"/><path d="M20,56.5a2.487,2.487,0,0,1,.96-1.956A14.609,14.609,0,0,1,12.1,48.382c-.773,2.064-1.976,3.438-3.346,3.592A17.947,17.947,0,0,0,22,58.949,2.5,2.5,0,0,1,20,56.5Z" style="fill:#a8e9ff"/><path d="M52.584,36.153C53.369,34.813,54.386,34,55.5,34a3.186,3.186,0,0,1,2.446,1.452C55.466,29.532,48.825,27,41,27a5.529,5.529,0,0,1-1.432,3.806C45.325,30.849,50.265,32.469,52.584,36.153Z" style="fill:#a8e9ff"/><path d="M8.5,34c1.112,0,2.128.811,2.914,2.148A9.2,9.2,0,0,1,14.3,33.28c2.6-1.676,6.177-2.444,10.132-2.474A5.529,5.529,0,0,1,23,27c-4.97,0-9.47,1.02-12.73,3.27a11.769,11.769,0,0,0-4.213,5.179A3.184,3.184,0,0,1,8.5,34Z" style="fill:#a8e9ff"/><path d="M24.67,30.8C26.3,30.8,29,25.02,29,22h6c0,3.02,2.7,8.8,4.33,8.8.08,0,.158,0,.238.006A5.529,5.529,0,0,0,41,27c-2,0-2-5-2-9H25c0,4,0,9-2,9a5.529,5.529,0,0,0,1.432,3.806C24.512,30.805,24.59,30.8,24.67,30.8Z" style="fill:#82dfff"/><path d="M51.907,48.4A13.788,13.788,0,0,1,49.7,51.02a14.936,14.936,0,0,1-6.66,3.525A2.489,2.489,0,0,1,42,58.949a17.561,17.561,0,0,0,13.241-6.975C53.88,51.821,52.681,50.456,51.907,48.4Z" style="fill:#a8e9ff"/><path d="M57.946,35.452A3.186,3.186,0,0,0,55.5,34c-1.114,0-2.131.813-2.916,2.153A9.63,9.63,0,0,1,54,41.39a10.576,10.576,0,0,1-.11,1.6A12.763,12.763,0,0,1,51.907,48.4c.774,2.053,1.973,3.418,3.338,3.571A17.925,17.925,0,0,0,59,41,14.2,14.2,0,0,0,57.946,35.452Z" style="fill:#c9f1ff"/><path d="M12.1,48.382A12.8,12.8,0,0,1,10,41.39c0-.13,0-.26.01-.39a9.484,9.484,0,0,1,1.4-4.852C10.628,34.811,9.612,34,8.5,34a3.184,3.184,0,0,0-2.443,1.449A14.177,14.177,0,0,0,5,41,17.9,17.9,0,0,0,8.755,51.974C10.125,51.82,11.328,50.446,12.1,48.382Z" style="fill:#c9f1ff"/><path d="M44,56.5a2.485,2.485,0,0,0-.96-1.955A15.751,15.751,0,0,1,39.33,55H37.489A2.489,2.489,0,0,1,35.5,59H41c.339,0,.67-.032,1-.051A2.5,2.5,0,0,0,44,56.5Z" style="fill:#82dfff"/><path d="M26,56.5a2.482,2.482,0,0,1,.511-1.5H24.67a15.751,15.751,0,0,1-3.71-.456A2.49,2.49,0,0,0,22,58.949c.333.019.664.051,1,.051h5.5A2.5,2.5,0,0,1,26,56.5Z" style="fill:#82dfff"/><path d="M38,56.5a2.482,2.482,0,0,0-.511-1.5H26.511A2.489,2.489,0,0,0,28.5,59h7A2.5,2.5,0,0,0,38,56.5Z" style="fill:#66d8ff"/><path d="M25,63V62a2,2,0,0,1,2-2H37a2,2,0,0,1,2,2v1h2V59H23v4Z" style="fill:#6997d6"/><ellipse cx="48.684" cy="7.695" rx="1.642" ry="2.286" transform="translate(8.828 36.692) rotate(-45.02)" style="fill:#f6fafd"/><ellipse cx="19.684" cy="48.695" rx="1.642" ry="2.286" transform="translate(-28.674 28.198) rotate(-45.02)" style="fill:#f6fafd"/><ellipse cx="44.682" cy="7.708" rx="0.825" ry="1.148" transform="translate(7.646 33.865) rotate(-45.02)" style="fill:#f6fafd"/><ellipse cx="24.682" cy="50.708" rx="0.825" ry="1.148" transform="translate(-28.633 32.323) rotate(-45.02)" style="fill:#f6fafd"/><ellipse cx="32.427" cy="7.208" rx="0.413" ry="0.574" transform="translate(4.407 25.051) rotate(-45.02)" style="fill:#f6fafd"/><path d="M60,41c0-9.393-7.1-15-19-15-.663,0-1-2.691-1-8a1,1,0,0,0-1-1H38V14a1,1,0,0,0-1-1H35V12a1,1,0,0,0,1-1h1.73c1.505,3.017,5.13,5,9.27,5,5.514,0,10-3.589,10-8S52.514,0,47,0c-4.141,0-7.766,1.983-9.271,5H36a1,1,0,0,0-1-1H29a1,1,0,0,0-1,1v6a1,1,0,0,0,1,1v1H27a1,1,0,0,0-1,1v3H25a1,1,0,0,0-1,1c0,5.309-.337,8-1,8-5.433,0-10.031,1.191-13.3,3.448C5.971,32.042,4,36.036,4,41A19.007,19.007,0,0,0,22,59.949V63a1,1,0,0,0,1,1H41a1,1,0,0,0,1-1V59.951A18.948,18.948,0,0,0,60,41ZM39.314,6.355C40.291,3.791,43.451,2,47,2c4.411,0,8,2.691,8,6s-3.589,6-8,6c-3.549,0-6.709-1.791-7.69-4.369a4.446,4.446,0,0,1,0-3.262ZM37.093,7A6.524,6.524,0,0,0,37,8a6.512,6.512,0,0,0,.093,1H36V7ZM30,6h4v4H30Zm1,6h2v1H31Zm-3,3h8v2H28ZM24,62V60H40v2Zm17-4H23A17.019,17.019,0,0,1,6,41c0-4.341,1.629-7.675,4.838-9.907C13.77,29.069,17.976,28,23,28c2.8,0,2.986-4.418,3-9H38c.013,4.582.2,9,3,9,5.111,0,17,1.267,17,13A16.993,16.993,0,0,1,41,58Z"/><path d="M39.405,29.806h-.02C38.479,29.527,36,24.93,36,22a1,1,0,0,0-1-1H29a1,1,0,0,0-1,1c0,2.93-2.479,7.527-3.33,7.8a26.494,26.494,0,0,0-5.894.615l.448,1.949A24.448,24.448,0,0,1,24.67,31.8c2.34,0,4.787-5.512,5.252-8.8h4.156c.465,3.288,2.912,8.8,5.252,8.8,4.11,0,13.67.934,13.67,9.59,0,.063-.005.118-.006.18-.09-.082-.184-.173-.291-.28a3.479,3.479,0,0,0-5.41,0c-.49.49-.731.707-1.293.707s-.8-.217-1.293-.707a3.48,3.48,0,0,0-5.414,0c-.49.49-.731.707-1.293.707s-.8-.217-1.293-.707a3.48,3.48,0,0,0-5.414,0c-.49.49-.731.707-1.293.707s-.8-.217-1.293-.707a3.48,3.48,0,0,0-5.414,0c-.49.49-.731.707-1.293.707s-.8-.217-1.293-.707a3.48,3.48,0,0,0-5.414,0c-.49.49-.731.707-1.293.707s-.8-.217-1.295-.707a4.128,4.128,0,0,0-1.632-1.12,7.859,7.859,0,0,1,2.592-5.167l-1.33-1.492a9.948,9.948,0,0,0-3.322,7.411C9,41.08,9,41.234,9,41.39,9,49.446,16.029,56,24.67,56H39.33a16.152,16.152,0,0,0,11.049-4.246,14.773,14.773,0,0,0,2.639-3.24L51.3,47.486a12.764,12.764,0,0,1-2.283,2.8A14.157,14.157,0,0,1,39.33,54H24.67c-7.137,0-13.005-5.073-13.61-11.514.073.069.145.136.23.221a3.483,3.483,0,0,0,5.417,0c.49-.49.73-.707,1.293-.707s.8.217,1.293.707a3.48,3.48,0,0,0,5.414,0c.49-.49.73-.707,1.293-.707s.8.217,1.293.707a3.48,3.48,0,0,0,5.414,0c.49-.49.73-.707,1.293-.707s.8.217,1.293.707a3.48,3.48,0,0,0,5.414,0c.49-.49.73-.707,1.293-.707s.8.217,1.293.707a3.48,3.48,0,0,0,5.414,0c.49-.49.73-.707,1.293-.707s.8.217,1.29.706a4.333,4.333,0,0,0,1.443,1.047,11.637,11.637,0,0,1-.529,1.888l1.867.718a13.483,13.483,0,0,0,.807-3.216A11.5,11.5,0,0,0,55,41.39C55,34.138,49.15,29.806,39.405,29.806Z"/><path d="M17.337,32.911l-.674-1.883a14.616,14.616,0,0,0-2.407,1.107l1,1.73A12.642,12.642,0,0,1,17.337,32.911Z"/><path d="M51,8h2c0-2.757-2.691-5-6-5V5C49.206,5,51,6.346,51,8Z"/></g></svg>