<svg xmlns="http://www.w3.org/2000/svg" viewBox="0 0 64 64"><title>14-hair brushing</title><g id="_14-hair_brushing" data-name="14-hair brushing"><path d="M25,14a7.82,7.82,0,0,1-1.98,4.98C21,17.27,21,14,21,14h3a5.025,5.025,0,0,0,.98-.09Z" style="fill:#af7a58"/><path d="M56,21H46c-2.64,0-5.27-1.55-5.87-5.32A9.839,9.839,0,0,1,40,14.19,6.192,6.192,0,0,0,33.82,8c-4.48.13-4.85,5.2-8.84,5.91L25,14a7.82,7.82,0,0,1-1.98,4.98A4.4,4.4,0,0,0,26,20h2a19.547,19.547,0,0,0,.26,2.85C28.7,25.48,29.88,29,33,29c0,0,0,4,4,4v3l-3,2h7V33H54l.06-.38A6.279,6.279,0,0,0,56,33v3l-3,2h7V33a3,3,0,0,0,3-3V28C63,21,56,21,56,21Z" style="fill:#f2cfa9"/><path d="M59,56h4V49H59Z" style="fill:#8a8dff"/><polygon points="3 52 35 52 35 42 31 42 27 42 23 42 19 42 15 42 11 42 7 42 3 42 3 52" style="fill:#ffc9bd"/><polygon points="1 56 39 56 39 52 35 52 3 52 1 52 1 56" style="fill:#fecfd5"/><path d="M39,56H59V49H42a2.938,2.938,0,0,0-3,3Z" style="fill:#fecfd5"/><path d="M25,14a7.82,7.82,0,0,1-1.98,4.98C21,17.27,21,14,21,14h3a5.025,5.025,0,0,0,.98-.09Z" style="fill:#9a6948"/><path d="M56,21H46c-2.64,0-5.27-1.55-5.87-5.32A9.839,9.839,0,0,1,40,14.19,6.192,6.192,0,0,0,33.82,8c-4.48.13-4.85,5.2-8.84,5.91L25,14a7.82,7.82,0,0,1-1.98,4.98A4.4,4.4,0,0,0,26,20h2a19.547,19.547,0,0,0,.26,2.85C28.7,25.48,29.88,29,33,29c0,0,0,4,4,4v3l-3,2h7V33H56v3l-3,2h7V33a3,3,0,0,0,3-3V28C63,21,56,21,56,21Z" style="fill:#f2cfa9"/><path d="M37,33h0v3l-3,2h7V27a3,3,0,0,0-3-3H35.578A2.578,2.578,0,0,0,33,26.578V29a4,4,0,0,0,4,4Z" style="fill:#af7a58"/><path d="M60,28V38H53l3-2V33a6.279,6.279,0,0,1-1.94-.38A4.509,4.509,0,0,1,51,28V26h0a3,3,0,0,1,3-3h1a5,5,0,0,1,5,5Z" style="fill:#af7a58"/><path d="M40,16l.13-.32A9.839,9.839,0,0,1,40,14.19a6.307,6.307,0,0,0-4.582-6A3.488,3.488,0,0,0,33,11.5a7.344,7.344,0,0,0,.493,2.651,23.14,23.14,0,0,1,1.3,4.969c.025.157.049.32.069.485a2.744,2.744,0,0,0,1.482,2.145c.014.007.027.015.041.021a2.535,2.535,0,0,0,.3.108c.061.019.122.039.185.053a2.2,2.2,0,0,0,.23.037c.078.01.156.019.236.022a2.725,2.725,0,0,0,.327-.014c.075-.007.153-.01.226-.023a2.719,2.719,0,0,0,.313-.084c.065-.02.133-.035.2-.061a2.44,2.44,0,0,0,.31-.158c.049-.028.1-.049.15-.08a2.692,2.692,0,0,0,.4-.321A2.6,2.6,0,0,0,40,19.42V16" style="fill:#af7a58"/><path d="M24.69,15.967A8.253,8.253,0,0,0,25,14l-.02-.09A5.025,5.025,0,0,1,24,14H21a8.844,8.844,0,0,0,.293,2h3C24.435,16,24.555,15.975,24.69,15.967Z" style="fill:#af7a58"/><path d="M40,14.19a6.307,6.307,0,0,0-4.582-6,3.524,3.524,0,0,0-1.433.9A6,6,0,0,1,39,15v5a1.993,1.993,0,0,1-1.8,1.98c.041,0,.082.01.125.011a2.725,2.725,0,0,0,.327-.014c.075-.007.153-.01.226-.023a2.719,2.719,0,0,0,.313-.084c.065-.02.133-.035.2-.061a2.44,2.44,0,0,0,.31-.158c.049-.028.1-.049.15-.08a2.692,2.692,0,0,0,.4-.321A2.6,2.6,0,0,0,40,19.42V16l.13-.32A9.839,9.839,0,0,1,40,14.19Z" style="fill:#db996e"/><path d="M38.85,21.571c-.047.031-.1.052-.15.08a2.44,2.44,0,0,1-.31.158c-.063.026-.131.041-.2.061a2.719,2.719,0,0,1-.313.084c-.073.013-.151.016-.226.023a2.725,2.725,0,0,1-.327.014c-.08,0-.158-.012-.236-.022a2.2,2.2,0,0,1-.23-.037c-.063-.014-.124-.034-.185-.053a2.535,2.535,0,0,1-.3-.108c-.014-.006-.027-.014-.041-.021a2.744,2.744,0,0,1-1.482-2.145c-.02-.165-.044-.328-.069-.485a23.14,23.14,0,0,0-1.3-4.969A7.344,7.344,0,0,1,33,11.5a3.488,3.488,0,0,1,2.418-3.312,5.936,5.936,0,0,0-.791-.15A2.989,2.989,0,0,0,32,11v.539a9.151,9.151,0,0,0,.087,1.205A3.483,3.483,0,0,0,32,13.5a7.338,7.338,0,0,0,.437,2.482,2.436,2.436,0,0,1-.766,1.081L28,20a19.547,19.547,0,0,0,.26,2.85C28.7,25.48,29.88,29,33,29V26.9a4.947,4.947,0,0,1-3.359-2.49,1.982,1.982,0,0,1,.9-2.692L33.1,20.445a.621.621,0,0,1,.9.564A2,2,0,0,0,36,23h1a1.994,1.994,0,0,0,1.926-1.491A.931.931,0,0,1,38.85,21.571Z" style="fill:#e9b789"/><path d="M61,30H60v3a3,3,0,0,0,3-3V28A2,2,0,0,1,61,30Z" style="fill:#e9b789"/><path d="M51,28V26a3,3,0,0,1,3-3H53a3,3,0,0,0-3,3v2a3,3,0,0,1-3,3H41v2H56a6.279,6.279,0,0,1-1.94-.38A4.509,4.509,0,0,1,51,28Z" style="fill:#e9b789"/><path d="M38,24H35.578a2.575,2.575,0,0,0-2.507,2H37a2,2,0,0,1,2,2v8a2,2,0,0,0,2,2h0V27A3,3,0,0,0,38,24Z" style="fill:#db996e"/><path d="M55,23H54a2.99,2.99,0,0,0-2.816,2H53a5,5,0,0,1,5,5v6a2,2,0,0,0,2,2h0V28A5,5,0,0,0,55,23Z" style="fill:#db996e"/><path d="M34.626,8.038A5.654,5.654,0,0,0,33.82,8c-4.48.13-4.85,5.2-8.84,5.91L25,14a8.253,8.253,0,0,1-.31,1.967,5.971,5.971,0,0,0,.679-.057c3.241-.525,4.309-3.433,6.636-4.966A2.987,2.987,0,0,1,34.626,8.038Z" style="fill:#ffe2c2"/><ellipse cx="36.684" cy="11.695" rx="1.642" ry="2.286" transform="translate(2.481 29.377) rotate(-45.02)" style="fill:#f6fafd"/><ellipse cx="47.682" cy="23.708" rx="0.825" ry="1.148" transform="translate(-2.793 40.677) rotate(-45.02)" style="fill:#f6fafd"/><ellipse cx="45.427" cy="23.208" rx="0.413" ry="0.574" transform="translate(-3.1 38.936) rotate(-45.02)" style="fill:#f6fafd"/><path d="M59,56h4V49H59Z" style="fill:#8a8dff"/><polygon points="3 52 35 52 35 42 31 42 27 42 23 42 19 42 15 42 11 42 7 42 3 42 3 52" style="fill:#ffc9bd"/><polygon points="1 56 39 56 39 52 35 52 3 52 1 52 1 56" style="fill:#31c0e5"/><path d="M39,56H59V49H42a2.938,2.938,0,0,0-3,3Z" style="fill:#fecfd5"/><path d="M1,54H35a2,2,0,0,1,2,2h2V52H1Z" style="fill:#1da7ea"/><path d="M41,53v3H39V52a2.938,2.938,0,0,1,3-3H59v2H43A2,2,0,0,0,41,53Z" style="fill:#f3afba"/><path d="M59,51h1a1,1,0,0,1,1,1v4h2V49H59Z" style="fill:#696cd1"/><rect x="18" y="35" width="2" height="32" transform="translate(70 32) rotate(90)" style="fill:#ffb4a3"/><rect x="47" y="53" width="11" height="3" rx="1.5" ry="1.5" style="fill:#fee5d8"/><rect x="42" y="53" width="4" height="3" rx="1.5" ry="1.5" style="fill:#fee5d8"/><rect x="16" y="54" width="16" height="2" rx="1" ry="1" style="fill:#7dd5f5"/><rect x="11" y="54" width="3" height="2" rx="1" ry="1" style="fill:#7dd5f5"/><path d="M56,20H46c-1.152,0-4.916-.42-5-5.826a7.465,7.465,0,0,0-2.289-5.245A6.8,6.8,0,0,0,33.794,7c-2.833.082-4.283,1.822-5.562,3.357C27.051,11.776,26.032,13,24,13H21a1,1,0,0,0-1,1c0,2.421,1.254,7,6,7h1.04c.162,2.376.975,8.164,5.046,8.918A4.675,4.675,0,0,0,36,33.911v1.554L33.7,37H24v2H60a1,1,0,0,0,1-1V33.858A4,4,0,0,0,64,30V28C64,21.672,58.767,20,56,20ZM23.891,15a6.834,6.834,0,0,1-.911,2.423A6.2,6.2,0,0,1,22.093,15ZM62,30a1.993,1.993,0,0,1-1,1.722V28H59v9H56.3l.252-.168A1,1,0,0,0,57,36V33a1,1,0,0,0-1-1c-.163,0-4-.045-4-4V26H50v2a5.835,5.835,0,0,0,1.367,4H44v2H55v1.465L52.7,37H42V30H40v7H37.3l.252-.168A1,1,0,0,0,38,36V30H36v1.872A2.912,2.912,0,0,1,34,29a1,1,0,0,0-1-1c-3.88,0-4-7.921-4-8a1,1,0,0,0-1-1H26a3.8,3.8,0,0,1-1.48-.28A9.043,9.043,0,0,0,25.952,14.7a8.584,8.584,0,0,0,3.817-3.061C30.923,10.254,31.92,9.058,33.852,9a4.8,4.8,0,0,1,3.478,1.372A5.453,5.453,0,0,1,39,14.205c.005.276.025.536.045.8H39v4.422a1.576,1.576,0,0,1-3.142.173A23.1,23.1,0,0,0,33.9,12.553l-1.79.893a21.447,21.447,0,0,1,1.767,6.379,3.565,3.565,0,0,0,7.083.038A6.8,6.8,0,0,0,46,22H56c.614,0,6,.2,6,6Z"/><rect x="20" y="37" width="2" height="2"/><rect x="6" y="55" width="2" height="2"/><path d="M63,48H56v2h2v5H40V52a1.882,1.882,0,0,1,2-2H54V48H42a3.769,3.769,0,0,0-3.86,3H4V43H6v6H8V43h2v6h2V43h2v6h2V43h2v6h2V43h2v6h2V43h2v6h2V43h2v6h2V43h2v6h2V42a1,1,0,0,0-1-1H3a1,1,0,0,0-1,1v9H1a1,1,0,0,0-1,1v4a1,1,0,0,0,1,1H4V55H2V53H38v2H10v2H63a1,1,0,0,0,1-1V49A1,1,0,0,0,63,48Zm-1,7H60V50h2Z"/><rect x="4" y="30" width="2" height="9"/><rect x="8" y="25" width="2" height="14"/><rect x="12" y="28" width="2" height="11"/><rect x="8" y="21" width="2" height="2"/></g></svg>