<svg xmlns="http://www.w3.org/2000/svg" viewBox="0 0 64 64"><title>12-drying</title><g id="_12-drying" data-name="12-drying"><path d="M25,7a7.82,7.82,0,0,1-1.98,4.98C21,10.27,21,7,21,7h3a5.025,5.025,0,0,0,.98-.09Z" style="fill:#9a6948"/><path d="M56,14H46c-2.64,0-5.27-1.55-5.87-5.32A9.839,9.839,0,0,1,40,7.19,6.192,6.192,0,0,0,33.82,1c-4.48.13-4.85,5.2-8.84,5.91L25,7a7.82,7.82,0,0,1-1.98,4.98A4.4,4.4,0,0,0,26,13h2a19.547,19.547,0,0,0,.26,2.85C28.7,18.48,29.88,22,33,22c0,0,0,4,4,4v3l-3,2h7V26H56v3l-3,2h7V26a3,3,0,0,0,3-3V21C63,14,56,14,56,14Z" style="fill:#f2cfa9"/><path d="M37,26h0v3l-3,2h7V20a3,3,0,0,0-3-3H35.578A2.578,2.578,0,0,0,33,19.578V22a4,4,0,0,0,4,4Z" style="fill:#af7a58"/><path d="M60,21V31H53l3-2V26a6.279,6.279,0,0,1-1.94-.38A4.509,4.509,0,0,1,51,21V19h0a3,3,0,0,1,3-3h1a5,5,0,0,1,5,5Z" style="fill:#af7a58"/><path d="M40,9l.13-.32A9.839,9.839,0,0,1,40,7.19a6.307,6.307,0,0,0-4.582-6A3.488,3.488,0,0,0,33,4.5a7.344,7.344,0,0,0,.493,2.651,23.14,23.14,0,0,1,1.3,4.969c.025.157.049.32.069.485a2.744,2.744,0,0,0,1.482,2.145c.014.007.027.015.041.021a2.535,2.535,0,0,0,.3.108c.061.019.122.039.185.053a2.2,2.2,0,0,0,.23.037c.078.01.156.019.236.022a2.725,2.725,0,0,0,.327-.014c.075-.007.153-.01.226-.023a2.719,2.719,0,0,0,.313-.084c.065-.02.133-.035.2-.061a2.44,2.44,0,0,0,.31-.158c.049-.028.1-.049.15-.08a2.692,2.692,0,0,0,.4-.321A2.6,2.6,0,0,0,40,12.42V9" style="fill:#af7a58"/><path d="M24.69,8.967A8.253,8.253,0,0,0,25,7l-.02-.09A5.025,5.025,0,0,1,24,7H21a8.844,8.844,0,0,0,.293,2h3C24.435,9,24.555,8.975,24.69,8.967Z" style="fill:#af7a58"/><path d="M40,7.19a6.307,6.307,0,0,0-4.582-6,3.524,3.524,0,0,0-1.433.9A6,6,0,0,1,39,8v5a1.993,1.993,0,0,1-1.8,1.98c.041,0,.082.01.125.011a2.725,2.725,0,0,0,.327-.014c.075-.007.153-.01.226-.023a2.719,2.719,0,0,0,.313-.084c.065-.02.133-.035.2-.061a2.44,2.44,0,0,0,.31-.158c.049-.028.1-.049.15-.08a2.692,2.692,0,0,0,.4-.321A2.6,2.6,0,0,0,40,12.42V9l.13-.32A9.839,9.839,0,0,1,40,7.19Z" style="fill:#db996e"/><path d="M38.85,14.571c-.047.031-.1.052-.15.08a2.44,2.44,0,0,1-.31.158c-.063.026-.131.041-.2.061a2.719,2.719,0,0,1-.313.084c-.073.013-.151.016-.226.023a2.725,2.725,0,0,1-.327.014c-.08,0-.158-.012-.236-.022a2.2,2.2,0,0,1-.23-.037c-.063-.014-.124-.034-.185-.053a2.535,2.535,0,0,1-.3-.108c-.014-.006-.027-.014-.041-.021a2.744,2.744,0,0,1-1.482-2.145c-.02-.165-.044-.328-.069-.485a23.14,23.14,0,0,0-1.3-4.969A7.344,7.344,0,0,1,33,4.5a3.488,3.488,0,0,1,2.418-3.312,5.936,5.936,0,0,0-.791-.15A2.989,2.989,0,0,0,32,4v.539a9.151,9.151,0,0,0,.087,1.205A3.483,3.483,0,0,0,32,6.5a7.338,7.338,0,0,0,.437,2.482,2.436,2.436,0,0,1-.766,1.081L28,13a19.547,19.547,0,0,0,.26,2.85C28.7,18.48,29.88,22,33,22V19.9a4.947,4.947,0,0,1-3.359-2.49,1.982,1.982,0,0,1,.9-2.692L33.1,13.445a.621.621,0,0,1,.9.564A2,2,0,0,0,36,16h1a1.994,1.994,0,0,0,1.926-1.491A.931.931,0,0,1,38.85,14.571Z" style="fill:#e9b789"/><path d="M61,23H60v3a3,3,0,0,0,3-3V21A2,2,0,0,1,61,23Z" style="fill:#e9b789"/><path d="M51,21V19a3,3,0,0,1,3-3H53a3,3,0,0,0-3,3v2a3,3,0,0,1-3,3H41v2H56a6.279,6.279,0,0,1-1.94-.38A4.509,4.509,0,0,1,51,21Z" style="fill:#e9b789"/><path d="M38,17H35.578a2.575,2.575,0,0,0-2.507,2H37a2,2,0,0,1,2,2v8a2,2,0,0,0,2,2h0V20A3,3,0,0,0,38,17Z" style="fill:#db996e"/><path d="M55,16H54a2.99,2.99,0,0,0-2.816,2H53a5,5,0,0,1,5,5v6a2,2,0,0,0,2,2h0V21A5,5,0,0,0,55,16Z" style="fill:#db996e"/><path d="M34.626,1.038A5.654,5.654,0,0,0,33.82,1c-4.48.13-4.85,5.2-8.84,5.91L25,7a8.253,8.253,0,0,1-.31,1.967,5.971,5.971,0,0,0,.679-.057c3.241-.525,4.309-3.433,6.636-4.966A2.987,2.987,0,0,1,34.626,1.038Z" style="fill:#ffe2c2"/><rect x="31" y="40" width="4" height="6" style="fill:#31c0e5"/><path d="M7,52.16A10,10,0,0,1,11,33c.18,0,.37,0,.55.01a10.005,10.005,0,0,1,0,19.98c-.18.01-.37.01-.55.01A9.881,9.881,0,0,1,7,52.16ZM16,43a5,5,0,1,0-5,5A5,5,0,0,0,16,43Z" style="fill:#7baef5"/><path d="M11.55,52.99a23.816,23.816,0,0,0,6.32-1.08L17,58H14l-1,5H7V52.16A9.881,9.881,0,0,0,11,53C11.18,53,11.37,53,11.55,52.99Z" style="fill:#fecfd5"/><polygon points="41 38 41 48 35 47 35 46 35 40 35 39 41 38" style="fill:#fecfd5"/><path d="M17.87,51.91a23.816,23.816,0,0,1-6.32,1.08,10.005,10.005,0,0,0,0-19.98C20.29,33.24,27.08,39,31,39v8C28.09,47,23.58,50.18,17.87,51.91Z" style="fill:#fecfd5"/><circle cx="11" cy="43" r="5" style="fill:#af7a58"/><path d="M14,52.768V58h3l.591-4.14.279-1.95A25.738,25.738,0,0,1,14,52.768Z" style="fill:#31c0e5"/><path d="M11.55,47.99c-.18.01-.37.01-.55.01a9.881,9.881,0,0,1-4-.84,10.011,10.011,0,0,1-5.675-6.648A10,10,0,0,0,11,53c.18,0,.37,0,.55-.01A9.971,9.971,0,0,0,20.673,40.5,10.011,10.011,0,0,1,11.55,47.99Z" style="fill:#71a2e6"/><path d="M11,48a5,5,0,1,1,5-5A5,5,0,0,1,11,48Z" style="fill:#7a7ef4"/><path d="M33,40v2a2,2,0,0,1-2,2h0v2h4V40Z" style="fill:#1da7ea"/><path d="M38.608,45.322A2,2,0,0,1,37,43.36V38.667L35,39v8l6,1V45.8Z" style="fill:#f2aab5"/><path d="M11.55,52.99c-.18.01-.37.01-.55.01a9.881,9.881,0,0,1-4-.84V63H9V57a2,2,0,0,1,2-2h3V52.768A21.484,21.484,0,0,1,11.55,52.99Z" style="fill:#f2aab5"/><path d="M16.2,54.5c.436-.189.932-.414,1.392-.642l.279-1.95a25.738,25.738,0,0,1-3.87.858V58h1V56.334A1.994,1.994,0,0,1,16.2,54.5Z" style="fill:#1da7ea"/><path d="M24.915,45A1.937,1.937,0,0,1,23,43.02V43a10.967,10.967,0,0,0-3.854-8.347,1.961,1.961,0,0,0-.667-.37A24.416,24.416,0,0,0,11.55,33.01a10.005,10.005,0,0,1,0,19.98,23.816,23.816,0,0,0,6.32-1.08q.494-.15.975-.314C24.094,49.823,28.258,47,31,47V45Z" style="fill:#f2aab5"/><ellipse cx="6.316" cy="37.695" rx="2.286" ry="1.642" transform="translate(-24.797 15.496) rotate(-44.98)" style="fill:#f6fafd"/><ellipse cx="4.318" cy="41.708" rx="1.148" ry="0.825" transform="translate(-28.218 15.258) rotate(-44.98)" style="fill:#f6fafd"/><ellipse cx="26.318" cy="42.708" rx="1.148" ry="0.825" transform="translate(-22.487 31.102) rotate(-44.98)" style="fill:#f6fafd"/><ellipse cx="36.684" cy="4.695" rx="1.642" ry="2.286" transform="translate(7.433 27.325) rotate(-45.02)" style="fill:#f6fafd"/><ellipse cx="47.682" cy="16.708" rx="0.825" ry="1.148" transform="translate(2.159 38.625) rotate(-45.02)" style="fill:#f6fafd"/><ellipse cx="45.427" cy="16.208" rx="0.413" ry="0.574" transform="translate(1.852 36.884) rotate(-45.02)" style="fill:#f6fafd"/><path d="M56,13H46c-1.15,0-4.911-.42-5-5.825a7.465,7.465,0,0,0-2.29-5.25A6.777,6.777,0,0,0,33.791,0C30.959.083,29.51,1.822,28.23,3.357c-1.027,1.234-1.916,2.3-3.446,2.573A4.088,4.088,0,0,1,24,6H21a1,1,0,0,0-1,1c0,.152.027,3.756,2.368,5.739A5.407,5.407,0,0,0,26,14h1.04c.162,2.376.976,8.164,5.046,8.918A4.676,4.676,0,0,0,36,26.911v1.554L33.7,30H24v2H60a1,1,0,0,0,1-1V26.858A4,4,0,0,0,64,23V21C64,14.672,58.767,13,56,13ZM23.886,8a6.979,6.979,0,0,1-.91,2.421A6.4,6.4,0,0,1,22.1,8ZM62,23a1.993,1.993,0,0,1-1,1.722V21H59v9H56.3l.252-.168A1,1,0,0,0,57,29V26a1,1,0,0,0-1-1c-.163,0-4-.045-4-4V19H50v2a5.835,5.835,0,0,0,1.367,4H44v2H55v1.465L52.7,30H42V23H40v7H37.3l.252-.168A1,1,0,0,0,38,29V23H36v1.872A2.91,2.91,0,0,1,34,22a1,1,0,0,0-1-1c-3.88,0-4-7.921-4-8a1,1,0,0,0-1-1H26a3.846,3.846,0,0,1-1.482-.277,9.046,9.046,0,0,0,1.435-4.03,8.573,8.573,0,0,0,3.815-3.055C30.922,3.252,31.919,2.056,33.85,2a4.746,4.746,0,0,1,3.477,1.371A5.449,5.449,0,0,1,39,7.207c.005.275.025.534.046.793H39v4.42A1.559,1.559,0,0,1,37.42,14a1.576,1.576,0,0,1-1.557-1.4,23.028,23.028,0,0,0-1.969-7.043l-1.788.9a21.261,21.261,0,0,1,1.771,6.376A3.573,3.573,0,0,0,37.42,16a3.524,3.524,0,0,0,3.537-3.138A6.8,6.8,0,0,0,46,15H56c.614,0,6,.205,6,6Z"/><path d="M11,37a6,6,0,1,0,6,6A6.006,6.006,0,0,0,11,37Zm0,10a4,4,0,1,1,4-4A4,4,0,0,1,11,47Z"/><path d="M40.836,37.014l-6,1A1,1,0,0,0,34,39H32a1,1,0,0,0-1-1c-1.38,0-3.406-.936-5.753-2.019-3.694-1.706-8.292-3.829-13.643-3.97C11.406,32,11.2,32,11,32A11,11,0,0,0,6.6,53.075,10.828,10.828,0,0,0,11,54c.2,0,.406,0,.576-.01l.028,0h0l.02,0c.728-.021,1.459-.091,2.2-.184L12.181,62H8V55H6v8a1,1,0,0,0,1,1h6a1,1,0,0,0,.98-.8l.84-4.2H17a1,1,0,0,0,.99-.858l.783-5.481A58.479,58.479,0,0,0,25.24,50.02C27.591,48.936,29.621,48,31,48a1,1,0,0,0,1-1h2a1,1,0,0,0,.836.986l6,1A.908.908,0,0,0,41,49a1,1,0,0,0,1-1V38a1,1,0,0,0-1.164-.986ZM11,52a8.847,8.847,0,0,1-3.6-.756A9,9,0,0,1,11,34c.147,0,.319,0,.5.009A9.006,9.006,0,0,1,11.5,51.992C11.334,52,11.161,52,11,52Zm4.22,5,.712-3.562c.244-.053.487-.1.733-.163L16.133,57ZM30,46.088A24.5,24.5,0,0,0,24.4,48.2c-1.607.741-3.391,1.554-5.311,2.24a10.981,10.981,0,0,0,0-14.89c1.93.689,3.718,1.5,5.319,2.243A24.451,24.451,0,0,0,30,39.912ZM32,45V41h2v4Zm8,1.819-4-.666V39.847l4-.666Z"/><rect x="20" y="30" width="2" height="2"/><path d="M57,38c-.563,0-.8-.217-1.293-.707a3.48,3.48,0,0,0-5.414,0c-.49.49-.731.707-1.293.707s-.8-.217-1.293-.707A3.564,3.564,0,0,0,45,36v2c.562,0,.8.217,1.293.707a3.48,3.48,0,0,0,5.414,0c.49-.49.73-.707,1.293-.707s.8.217,1.293.707a3.48,3.48,0,0,0,5.414,0c.49-.49.73-.707,1.293-.707V36a3.564,3.564,0,0,0-2.707,1.293C57.8,37.783,57.562,38,57,38Z"/><path d="M57,43c-.563,0-.8-.217-1.293-.707a3.48,3.48,0,0,0-5.414,0c-.49.49-.731.707-1.293.707s-.8-.217-1.293-.707A3.564,3.564,0,0,0,45,41v2c.562,0,.8.217,1.293.707a3.48,3.48,0,0,0,5.414,0c.49-.49.73-.707,1.293-.707s.8.217,1.293.707a3.48,3.48,0,0,0,5.414,0c.49-.49.73-.707,1.293-.707V41a3.564,3.564,0,0,0-2.707,1.293C57.8,42.783,57.562,43,57,43Z"/><path d="M57,48c-.563,0-.8-.217-1.293-.707a3.48,3.48,0,0,0-5.414,0c-.49.49-.731.707-1.293.707s-.8-.217-1.293-.707A3.564,3.564,0,0,0,45,46v2c.562,0,.8.217,1.293.707a3.48,3.48,0,0,0,5.414,0c.49-.49.73-.707,1.293-.707s.8.217,1.293.707a3.48,3.48,0,0,0,5.414,0c.49-.49.73-.707,1.293-.707V46a3.564,3.564,0,0,0-2.707,1.293C57.8,47.783,57.562,48,57,48Z"/></g></svg>